<?xml version="1.0" encoding="utf-8"?>
<!-- Generator: Adobe Illustrator 25.3.1, SVG Export Plug-In . SVG Version: 6.00 Build 0)  -->
<svg version="1.1" id="Calque_1" xmlns="http://www.w3.org/2000/svg" xmlns:xlink="http://www.w3.org/1999/xlink" x="0px" y="0px"
	 viewBox="0 0 512 512" style="enable-background:new 0 0 512 512;" xml:space="preserve">
<style type="text/css">
	.st0{fill:#222222;}
</style>
<path class="st0" d="M5.7,288.2c10.7-32.9,21.5-65.8,32.2-98.8c16-49.3,32-98.7,48-148.1c4.1-12.7,13.4-18.8,25-16.2
	c7.9,1.7,12.7,6.8,15.1,14.4c7.1,22,14.3,43.9,21.5,65.9c9.1,28,18.3,56,27.3,84c1.2,3.6,2.9,4.6,6.5,4.6c49.9-0.1,99.7-0.1,149.6,0
	c3.7,0,5.3-1.1,6.4-4.7c15.8-49.2,31.9-98.4,47.8-147.6c4.3-13.1,13.4-19.2,25.2-16.5c8.8,2,13.1,8.2,15.7,16.3
	c11.3,35,22.7,69.9,34,104.9c14.6,44.9,29.1,89.7,43.7,134.6c5.3,16.4,1.7,27.8-12.3,37.9c-75.4,54.8-150.7,109.5-226.1,164.3
	c-7.7,5.6-11.2,5.6-18.8,0c-75.5-54.8-151-109.7-226.6-164.5c-7.4-5.3-12-12.1-14.4-20.7C5.7,294.8,5.7,291.5,5.7,288.2z
	 M183.9,216.9c24,73.8,47.8,147.2,71.6,220.6c0.4,0,0.8-0.1,1.1-0.1c23.9-73.4,47.7-146.8,71.7-220.5
	C279.8,216.9,232.1,216.9,183.9,216.9z M68.4,217c51.9,66.5,103.2,132.4,154.6,198.2c0.5-2.1,0.2-3.7-0.3-5.2
	c-20.5-63.1-41-126.1-61.4-189.2c-1-3.2-2.4-4.2-5.7-4.2c-27.5,0.1-55,0.1-82.6,0.1C71.8,216.7,70.5,216.9,68.4,217z M444,216.7
	c-2.7,0-4.1,0-5.6,0c-27,0-54.1,0.1-81.1-0.1c-4,0-5.5,1.2-6.7,4.9c-20.3,62.8-40.8,125.6-61.2,188.3c-0.5,1.7-0.9,3.4-1.4,5
	c0.3,0.2,0.6,0.3,0.9,0.5C340.4,349.5,391.8,283.6,444,216.7z M316.9,416.5c0.2,0.2,0.4,0.4,0.6,0.7c0.6-0.4,1.3-0.8,1.9-1.2
	c53.2-38.7,106.4-77.3,159.7-116c4-2.9,5.2-6.2,3.6-10.9c-5.8-17.4-11.4-34.9-17.2-52.4c-0.7-2.3-1.5-4.5-2.5-7.4
	C414,292.1,365.5,354.3,316.9,416.5z M49.2,229.3c-0.7,1.7-1.1,2.7-1.4,3.8c-6.1,18.5-12,37.1-18.3,55.6c-1.8,5.2-0.3,8.5,4,11.6
	c44.9,32.5,89.6,65,134.4,97.6c8.9,6.5,17.8,12.9,26.7,19.3c0.2-0.2,0.5-0.5,0.7-0.7C146.7,354.4,98.2,292.2,49.2,229.3z M107,54.1
	c-0.4,0-0.8-0.1-1.2-0.1c-15,46.4-30.1,92.8-45.2,139.5c30.9,0,61.1,0,91.8,0C137.1,146.7,122.1,100.4,107,54.1z M451.7,193.6
	c-15.3-47-30.3-93.3-45.4-139.7c-0.4,0-0.7,0-1.1,0c-15.1,46.4-30.1,92.8-45.4,139.7C390.6,193.6,420.8,193.6,451.7,193.6z"/>
</svg>
