<svg version="1.1" id="Calque_1" xmlns="http://www.w3.org/2000/svg" xmlns:xlink="http://www.w3.org/1999/xlink" x="0px" y="0px"
	 viewBox="0 0 382 382" style="enable-background:new 0 0 382 382;" xml:space="preserve">
<style type="text/css">
	.st0{fill:#dadada;}
</style>
<path class="st0" d="M268.8,137.3c-33.2,0-48.8,12.2-59.3,27.9v-15.7c0-5.1-4.1-9.2-9.2-9.2h-44.4c-5.1,0-9.2,4.1-9.2,9.2v181.1
	c0,5.1,4.1,9.2,9.2,9.2h44.4c5.1,0,9.2-4.1,9.2-9.2v-97.1c1.2-13,6.9-42.1,35.2-42.1c36.5,0,32.8,42.5,32.8,55v84.2
	c0,5.1,4.1,9.2,9.2,9.2h45.9c5.1,0,9.2-4.1,9.2-9.2v-86.8C341.9,206.1,342.3,137.3,268.8,137.3z"/>
<path class="st0" d="M108.2,140.3H65.3c-5.6,0-10.1,4.5-10.1,10.1v179.4c0,5.6,4.5,10.1,10.1,10.1h42.8c5.6,0,10.1-4.5,10.1-10.1
	V150.4C118.2,144.8,113.7,140.3,108.2,140.3z"/>
<ellipse transform="matrix(0.9871 -0.1602 0.1602 0.9871 -12.1375 14.9642)" class="st0" cx="86.7" cy="82.8" rx="40.7" ry="40.7"/>
</svg>
