<?xml version="1.0" encoding="utf-8"?>
<!-- Generator: Adobe Illustrator 24.3.0, SVG Export Plug-In . SVG Version: 6.00 Build 0)  -->
<svg version="1.1" id="Capa_1" xmlns="http://www.w3.org/2000/svg" xmlns:xlink="http://www.w3.org/1999/xlink" x="0px" y="0px"
	 viewBox="0 0 302.4 302.4" style="enable-background:new 0 0 302.4 302.4;" xml:space="preserve">
<style type="text/css">
	.st0{fill:#DADADA;}
	.st1{fill:none;stroke:#DADADA;stroke-width:21;stroke-linecap:round;stroke-linejoin:round;stroke-miterlimit:10;}
</style>
<path class="st0" d="M80.4,221.6c-3.6-4-10.4-4-14.4,0l-22,22c-4,4-4,10.4,0,14.4s10.4,4,14.4,0l22-22
	C84.4,232,84.4,225.6,80.4,221.6z"/>
<path class="st0" d="M151.2,250.8c-5.6,0-10.4,4.8-10.4,10.4V292c0,5.6,4.8,10.4,10.4,10.4c5.6,0,10.4-4.8,10.4-10.4v-30.8
	C161.6,255.6,156.8,250.8,151.2,250.8z"/>
<path class="st0" d="M258,243.6l-22-22c-3.6-4-10.4-4-14.4,0s-4,10.4,0,14.4l22,22c4,4,10.4,4,14.4,0S262,247.6,258,243.6z"/>
<path class="st0" d="M292,140.8h-30.8c-5.6,0-10.4,4.8-10.4,10.4c0,5.6,4.8,10.4,10.4,10.4H292c5.6,0,10.4-4.8,10.4-10.4
	S297.6,140.8,292,140.8z"/>
<path class="st0" d="M258.4,44.4c-4-4-10.4-4-14.4,0l-22,22c-4,4-4,10.4,0,14.4c3.6,4,10.4,4,14.4,0l22-22
	C262.4,54.8,262.4,48.4,258.4,44.4z"/>
<path class="st0" d="M151.2,0c-5.6,0-10.4,4.8-10.4,10.4v30.8c0,5.6,4.8,10.4,10.4,10.4c5.6,0,10.4-4.8,10.4-10.4V10.4
	C161.6,4.8,156.8,0,151.2,0z"/>
<path class="st0" d="M80.4,66.4l-22-22c-4-4-10.4-4-14.4,0s-4,10.4,0,14.4l22,22c4,4,10.4,4,14.4,0S84.4,70.4,80.4,66.4z"/>
<path class="st0" d="M41.2,140.8H10.4c-5.6,0-10.4,4.8-10.4,10.4s4.4,10.4,10.4,10.4h30.8c5.6,0,10.4-4.8,10.4-10.4
	S46.8,140.8,41.2,140.8z"/>
<path class="st1" d="M216.4,150.1c0,0.3,0,0.7,0,1.1c0,36-29.2,65.2-65.2,65.2S86,187.2,86,151.2S115.2,86,151.2,86
	c10.2,0,19.9,2.4,28.5,6.5"/>
<path class="st1" d="M206.5,115.1C206.9,115.8,206.2,114.4,206.5,115.1"/>
</svg>
