<svg id="Windows" xmlns="http://www.w3.org/2000/svg" viewBox="0 0 274.81 274.26"><defs><style>.cls-1{opacity:0.8;}.cls-2{fill:#455a64;}.cls-3{opacity:0.7;}.cls-4{fill:#27debf;}.cls-5{opacity:0.4;}.cls-14,.cls-6{fill:#fff;}.cls-7{opacity:0.15;}.cls-11,.cls-8{fill:#37474f;}.cls-8{opacity:0.9;}.cls-9{fill:#263238;}.cls-10{fill:#fafafa;}.cls-12{fill:#e0e0e0;}.cls-13{fill:#f5f5f5;}.cls-14{opacity:0.6;}</style></defs><g class="cls-1"><path class="cls-2" d="M297.52,62.76V211.21a6.81,6.81,0,0,1-3.08,5.34L94.35,332.29a2,2,0,0,1-1,.3,1.74,1.74,0,0,1-.39,0,1.14,1.14,0,0,1-.26-.09l-.17-.1-.18-.12a1.22,1.22,0,0,1-.17-.15,2.52,2.52,0,0,1-.57-.81,3.88,3.88,0,0,1-.32-1.56V182a6.85,6.85,0,0,1,3.09-5.35L294.44,61a2.25,2.25,0,0,1,2.07-.26,1.82,1.82,0,0,1,.27.15l0,0a.8.8,0,0,1,.2.21.48.48,0,0,1,.09.11.54.54,0,0,1,.1.16,1.38,1.38,0,0,1,.18.39,1.15,1.15,0,0,1,.07.28.07.07,0,0,1,0,.06,1.26,1.26,0,0,1,.05.28C297.51,62.49,297.52,62.62,297.52,62.76Z" transform="translate(-87.32 -58.33)"/><path class="cls-2" d="M295.81,61.56a.8.8,0,0,1,.3.06l0,0h0l.06,0,.08.11h0l.08.11s0,0,0,.05v0l.09.29v0l0,0v0a.56.56,0,0,0,0,.07c0,.1,0,.2,0,.31V211.21a5.81,5.81,0,0,1-2.58,4.48L93.85,331.43a1,1,0,0,1-.52.16h0l-.21,0-.07,0-.13-.09h0v0l0-.05a1.31,1.31,0,0,1-.33-.47,2.8,2.8,0,0,1-.24-1.16V182a5.79,5.79,0,0,1,2.59-4.48L294.93,61.84a1.94,1.94,0,0,1,.88-.28m0-1a2.78,2.78,0,0,0-1.37.41L94.35,176.66A6.85,6.85,0,0,0,91.26,182v147.7a3.88,3.88,0,0,0,.32,1.56,2.52,2.52,0,0,0,.57.81,1.22,1.22,0,0,0,.17.15l.18.12.17.1a1.14,1.14,0,0,0,.26.09,1.74,1.74,0,0,0,.39,0h.05a2,2,0,0,0,1-.3L294.44,216.55a6.81,6.81,0,0,0,3.08-5.34V62.76c0-.14,0-.27,0-.39a1.26,1.26,0,0,0-.05-.28.07.07,0,0,0,0-.06,1.15,1.15,0,0,0-.07-.28,1.38,1.38,0,0,0-.18-.39.54.54,0,0,0-.1-.16.48.48,0,0,0-.09-.11.8.8,0,0,0-.2-.21l0,0a1.82,1.82,0,0,0-.27-.15,1.63,1.63,0,0,0-.7-.15Z" transform="translate(-87.32 -58.33)"/><g class="cls-3"><path class="cls-2" d="M297.52,62.76V211.21a6.81,6.81,0,0,1-3.08,5.34L94.35,332.29a2,2,0,0,1-1,.3,1.74,1.74,0,0,1-.39,0,1.14,1.14,0,0,1-.26-.09l-.17-.1-.18-.12a1.22,1.22,0,0,1-.17-.15,2.52,2.52,0,0,1-.57-.81,3.88,3.88,0,0,1-.32-1.56V182a6.85,6.85,0,0,1,3.09-5.35L294.44,61a2.25,2.25,0,0,1,2.07-.26,1.82,1.82,0,0,1,.27.15l0,0a.8.8,0,0,1,.2.21.48.48,0,0,1,.09.11.54.54,0,0,1,.1.16,1.38,1.38,0,0,1,.18.39,1.15,1.15,0,0,1,.07.28.07.07,0,0,1,0,.06,1.26,1.26,0,0,1,.05.28C297.51,62.49,297.52,62.62,297.52,62.76Z" transform="translate(-87.32 -58.33)"/></g></g><path class="cls-4" d="M296.51,60.71a2.25,2.25,0,0,0-2.07.26L94.35,176.66A6.85,6.85,0,0,0,91.26,182v10.08l-3.94-2.31v-10a6.81,6.81,0,0,1,3.08-5.33L290.5,58.75a2.13,2.13,0,0,1,2.24-.18C293.29,58.9,295.85,60.37,296.51,60.71Z" transform="translate(-87.32 -58.33)"/><path class="cls-4" d="M297.52,62.73c0-1.94-1.39-2.73-3.08-1.75L94.34,176.67A6.81,6.81,0,0,0,91.26,182v10.08L297.52,72.85Z" transform="translate(-87.32 -58.33)"/><g class="cls-5"><path class="cls-6" d="M294.44,61,94.35,176.67A6.2,6.2,0,0,0,92.18,179l-3.92-2.26a6.22,6.22,0,0,1,2.14-2.26L290.5,58.75a2.16,2.16,0,0,1,2.24-.19c.55.34,3.11,1.8,3.76,2.15A2.18,2.18,0,0,0,294.44,61Z" transform="translate(-87.32 -58.33)"/></g><path class="cls-7" d="M87.32,189.79v-10a6.34,6.34,0,0,1,.94-3.08l3.93,2.25a6.18,6.18,0,0,0-.93,3.07v10.08Z" transform="translate(-87.32 -58.33)"/><path class="cls-2" d="M279,74.21a4.61,4.61,0,0,0-1.74,3.69c0,1.48.78,2.23,1.74,1.68a4.61,4.61,0,0,0,1.74-3.69C280.69,74.41,279.91,73.66,279,74.21Z" transform="translate(-87.32 -58.33)"/><path class="cls-2" d="M285.22,70.59a4.58,4.58,0,0,0-1.74,3.68c0,1.48.78,2.23,1.74,1.68A4.61,4.61,0,0,0,287,72.26C287,70.78,286.18,70,285.22,70.59Z" transform="translate(-87.32 -58.33)"/><path class="cls-2" d="M291.49,67a4.58,4.58,0,0,0-1.74,3.69c0,1.48.78,2.23,1.74,1.67a4.58,4.58,0,0,0,1.74-3.69C293.23,67.15,292.45,66.4,291.49,67Z" transform="translate(-87.32 -58.33)"/><path class="cls-8" d="M92.39,332.3l-.38-.22c-.28-.17-.61-.35-1-.53v0l-.52-.29,0,0-.81-.46c-.26-.16-.49-.29-.68-.39s-.32-.18-.38-.21a1.65,1.65,0,0,1-.53-.43,2.31,2.31,0,0,1-.41-.62,3.75,3.75,0,0,1-.36-1.63V189.78l3.94,2.31V329.71a4.63,4.63,0,0,0,.32,1.56,2.52,2.52,0,0,0,.57.81.5.5,0,0,0,.17.15Z" transform="translate(-87.32 -58.33)"/><path class="cls-9" d="M158.15,243.47s-7.28-4.71-8.22-4.74l-20.7-.65,8.23,4.38v.36Z" transform="translate(-87.32 -58.33)"/><path class="cls-10" d="M122.67,257.66v-13l35.48-44.11v17.2l-20.69,24.67v.36l20.69.65v17.2Z" transform="translate(-87.32 -58.33)"/><polygon class="cls-2" points="70.83 142.26 62.61 137.52 27.12 181.63 35.35 186.37 70.83 142.26"/><polygon class="cls-11" points="27.12 181.63 27.12 194.59 35.35 199.33 35.35 186.37 27.12 181.63"/><path class="cls-10" d="M179.63,252.15l-11,6.36,27.46-100.65,10.62-6.13Z" transform="translate(-87.32 -58.33)"/><polygon class="cls-2" points="119.38 93.4 111.15 88.66 100.53 94.79 108.76 99.53 119.38 93.4"/><polygon class="cls-11" points="100.53 94.79 108.76 99.53 81.3 200.18 73.07 195.44 100.53 94.79"/><polygon class="cls-9" points="121.62 146.33 129.84 151.07 150.53 126.17 142.31 121.43 121.62 146.33"/><path class="cls-10" d="M237.85,184.5l-20.69-.78v-17.2l35.48,3.14v13l-35.48,44V209.4l20.69-24.54Z" transform="translate(-87.32 -58.33)"/><polygon class="cls-2" points="121.62 103.45 129.84 108.19 165.33 111.33 157.1 106.59 121.62 103.45"/><polyline class="cls-11" points="129.84 108.19 129.84 125.39 121.62 120.65 121.62 103.45"/><polygon class="cls-11" points="121.62 146.33 129.84 151.07 129.84 168.27 121.62 163.53 121.62 146.33"/><g class="cls-1"><path class="cls-2" d="M362.13,88.36V236.81a6.82,6.82,0,0,1-3.09,5.35l-85.29,49.2a1.89,1.89,0,0,1-1,.3,1.74,1.74,0,0,1-.39-.05l-.27-.09-.16-.1-.18-.12a1.22,1.22,0,0,1-.17-.15,2.37,2.37,0,0,1-.57-.81,3.88,3.88,0,0,1-.32-1.56V141.08a6.84,6.84,0,0,1,3.08-5.35L359,86.58a2.25,2.25,0,0,1,2.08-.27,1.4,1.4,0,0,1,.26.16l0,0a1,1,0,0,1,.2.2.48.48,0,0,1,.09.11.54.54,0,0,1,.1.16,1.34,1.34,0,0,1,.19.4,1.07,1.07,0,0,1,.07.27.07.07,0,0,1,0,.06,1.26,1.26,0,0,1,.05.28C362.12,88.1,362.13,88.23,362.13,88.36Z" transform="translate(-87.32 -58.33)"/><path class="cls-2" d="M360.41,87.16a.63.63,0,0,1,.3.07h0l.06,0,.09.11h0l.07.12,0,0,0,0,.1.29v0l0,0v0a.17.17,0,0,1,0,.07,2.66,2.66,0,0,1,0,.3V236.81a5.82,5.82,0,0,1-2.59,4.48L273.26,290.5a1,1,0,0,1-.52.16h0l-.21,0-.07,0-.13-.08,0,0,0,0,0,0a1.43,1.43,0,0,1-.32-.47,2.8,2.8,0,0,1-.24-1.16V141.08a5.81,5.81,0,0,1,2.58-4.48l85.29-49.15a1.82,1.82,0,0,1,.87-.29m0-1a2.83,2.83,0,0,0-1.37.42l-85.29,49.15a6.84,6.84,0,0,0-3.08,5.35v147.7a3.88,3.88,0,0,0,.32,1.56,2.37,2.37,0,0,0,.57.81,1.22,1.22,0,0,0,.17.15l.18.12.16.1.27.09a1.74,1.74,0,0,0,.39.05h0a1.91,1.91,0,0,0,1-.3L359,242.16a6.84,6.84,0,0,0,3.09-5.35V88.36c0-.13,0-.26,0-.39a1.26,1.26,0,0,0-.05-.28.07.07,0,0,0,0-.06,1.07,1.07,0,0,0-.07-.27,1.34,1.34,0,0,0-.19-.4.54.54,0,0,0-.1-.16.48.48,0,0,0-.09-.11,1,1,0,0,0-.2-.2l0,0a1.4,1.4,0,0,0-.26-.16,1.67,1.67,0,0,0-.71-.15Z" transform="translate(-87.32 -58.33)"/><g class="cls-1"><path class="cls-2" d="M362.13,88.36V236.81a6.82,6.82,0,0,1-3.09,5.35l-85.29,49.2a1.89,1.89,0,0,1-1,.3,1.74,1.74,0,0,1-.39-.05l-.27-.09-.16-.1-.18-.12a1.22,1.22,0,0,1-.17-.15,2.37,2.37,0,0,1-.57-.81,3.88,3.88,0,0,1-.32-1.56V141.08a6.84,6.84,0,0,1,3.08-5.35L359,86.58a2.25,2.25,0,0,1,2.08-.27,1.4,1.4,0,0,1,.26.16l0,0a1,1,0,0,1,.2.2.48.48,0,0,1,.09.11.54.54,0,0,1,.1.16,1.34,1.34,0,0,1,.19.4,1.07,1.07,0,0,1,.07.27.07.07,0,0,1,0,.06,1.26,1.26,0,0,1,.05.28C362.12,88.1,362.13,88.23,362.13,88.36Z" transform="translate(-87.32 -58.33)"/></g></g><path class="cls-4" d="M361.12,86.31a2.25,2.25,0,0,0-2.08.27l-85.29,49.15a6.84,6.84,0,0,0-3.08,5.35v10.08l-3.94-2.31v-10a6.81,6.81,0,0,1,3.08-5.33l85.3-49.16a2.16,2.16,0,0,1,2.23-.18C357.9,84.5,360.46,86,361.12,86.31Z" transform="translate(-87.32 -58.33)"/><path class="cls-4" d="M362.12,88.34c0-2-1.38-2.74-3.08-1.76l-85.29,49.16a6.81,6.81,0,0,0-3.08,5.34v10.08l91.45-52.7Z" transform="translate(-87.32 -58.33)"/><g class="cls-5"><path class="cls-6" d="M359,86.58l-85.28,49.16a6.3,6.3,0,0,0-2.18,2.28l-3.91-2.26a6.11,6.11,0,0,1,2.14-2.25L355.1,84.35a2.17,2.17,0,0,1,2.24-.18c.56.34,3.11,1.79,3.76,2.14A2.21,2.21,0,0,0,359,86.58Z" transform="translate(-87.32 -58.33)"/></g><path class="cls-7" d="M266.73,148.86v-10a6.37,6.37,0,0,1,.94-3.08l3.92,2.25a6.27,6.27,0,0,0-.92,3.07v10.08Z" transform="translate(-87.32 -58.33)"/><path class="cls-2" d="M343.55,99.82a4.58,4.58,0,0,0-1.74,3.68c0,1.48.78,2.23,1.74,1.68a4.61,4.61,0,0,0,1.74-3.69C345.29,100,344.51,99.26,343.55,99.82Z" transform="translate(-87.32 -58.33)"/><path class="cls-2" d="M349.82,96.19a4.6,4.6,0,0,0-1.74,3.69c0,1.48.78,2.23,1.74,1.67a4.55,4.55,0,0,0,1.74-3.69C351.56,96.38,350.79,95.63,349.82,96.19Z" transform="translate(-87.32 -58.33)"/><path class="cls-2" d="M356.09,92.56a4.61,4.61,0,0,0-1.74,3.69c0,1.48.78,2.23,1.74,1.67a4.56,4.56,0,0,0,1.75-3.68C357.84,92.76,357.06,92,356.09,92.56Z" transform="translate(-87.32 -58.33)"/><path class="cls-8" d="M271.8,291.37l-.38-.22-.95-.53h0l-.52-.3,0,0-.81-.46c-.26-.16-.5-.29-.68-.39s-.32-.18-.38-.21a1.65,1.65,0,0,1-.53-.43,2.31,2.31,0,0,1-.41-.62,3.75,3.75,0,0,1-.36-1.63V148.85l3.94,2.31V288.78a4.63,4.63,0,0,0,.32,1.56,2.37,2.37,0,0,0,.57.81.5.5,0,0,0,.17.15A.23.23,0,0,0,271.8,291.37Z" transform="translate(-87.32 -58.33)"/><path class="cls-4" d="M278.24,159.53a1.3,1.3,0,0,1,.16-.57l2.22-4.59a.29.29,0,0,1,.1-.13l0-.05a.15.15,0,0,1,.18,0,.28.28,0,0,1,.07.22V156a2.09,2.09,0,0,1,0,.48,2.89,2.89,0,0,1-.16.42l-1.17,2.42,1.17,1.08a.69.69,0,0,1,.16.23,1.51,1.51,0,0,1,0,.43v1.54a.7.7,0,0,1-.07.31.48.48,0,0,1-.18.21l0,0a.12.12,0,0,1-.1,0l-2.22-2a.47.47,0,0,1-.16-.39Z" transform="translate(-87.32 -58.33)"/><path class="cls-4" d="M286.35,148a2.07,2.07,0,0,1,.17-.45.75.75,0,0,1,.33-.35l.83-.48a.12.12,0,0,1,.17,0,.28.28,0,0,1,.08.22.55.55,0,0,1,0,.17l-3.8,16.2a1.82,1.82,0,0,1-.16.44.79.79,0,0,1-.33.37l-.8.46a.13.13,0,0,1-.17,0,.32.32,0,0,1-.08-.23,1.28,1.28,0,0,1,0-.17Z" transform="translate(-87.32 -58.33)"/><path class="cls-4" d="M292.23,152.6a1.25,1.25,0,0,1-.15.57l-2.22,4.59a.64.64,0,0,1-.1.14l-.06,0a.14.14,0,0,1-.17,0,.32.32,0,0,1-.07-.23v-1.54a2.09,2.09,0,0,1,0-.48,2.06,2.06,0,0,1,.16-.42l1.17-2.42-1.17-1.07a.67.67,0,0,1-.16-.24,1.51,1.51,0,0,1,0-.43v-1.54a.73.73,0,0,1,.07-.31.54.54,0,0,1,.17-.21l.06,0s.06,0,.1,0l2.22,2a.48.48,0,0,1,.15.4Z" transform="translate(-87.32 -58.33)"/><path class="cls-4" d="M298.39,151.53a.18.18,0,0,1,.22,0,.38.38,0,0,1,.09.28v1.69a.85.85,0,0,1-.09.38.56.56,0,0,1-.22.27l-1,.6a.15.15,0,0,1-.21,0,.34.34,0,0,1-.09-.27v-1.7a.88.88,0,0,1,.09-.38.57.57,0,0,1,.21-.26Z" transform="translate(-87.32 -58.33)"/><path class="cls-4" d="M301.89,149.52a.17.17,0,0,1,.22,0,.38.38,0,0,1,.09.28v1.69a.85.85,0,0,1-.09.38.56.56,0,0,1-.22.27l-1,.6a.18.18,0,0,1-.22,0,.38.38,0,0,1-.09-.28v-1.7a.92.92,0,0,1,.09-.38.53.53,0,0,1,.22-.26Z" transform="translate(-87.32 -58.33)"/><path class="cls-4" d="M305.39,147.5a.15.15,0,0,1,.21,0,.38.38,0,0,1,.09.28v1.69a.92.92,0,0,1-.09.39.63.63,0,0,1-.21.26l-1.05.6a.16.16,0,0,1-.21,0,.38.38,0,0,1-.09-.28v-1.7a.92.92,0,0,1,.09-.38.63.63,0,0,1,.21-.26Z" transform="translate(-87.32 -58.33)"/><path class="cls-4" d="M279.18,171.9l51.24-29.58c.61-.35,1.1-.1,1.1.55a2.34,2.34,0,0,1-1.1,1.82l-51.24,29.59c-.61.35-1.1.1-1.1-.56A2.35,2.35,0,0,1,279.18,171.9Z" transform="translate(-87.32 -58.33)"/><path class="cls-12" d="M295.62,190.89l51.24-29.59c.61-.35,1.1-.1,1.1.56a2.35,2.35,0,0,1-1.1,1.82l-51.24,29.58c-.61.35-1.1.1-1.1-.55A2.34,2.34,0,0,1,295.62,190.89Z" transform="translate(-87.32 -58.33)"/><path class="cls-12" d="M295.62,200.38l24.53-14.15c.6-.35,1.09-.1,1.09.56a2.33,2.33,0,0,1-1.09,1.81l-24.53,14.16c-.61.34-1.1.1-1.1-.56A2.35,2.35,0,0,1,295.62,200.38Z" transform="translate(-87.32 -58.33)"/><path class="cls-12" d="M295.62,209.87l24.53-14.15c.6-.34,1.09-.1,1.09.56a2.37,2.37,0,0,1-1.09,1.82l-24.53,14.15c-.61.35-1.1.1-1.1-.56A2.35,2.35,0,0,1,295.62,209.87Z" transform="translate(-87.32 -58.33)"/><path class="cls-4" d="M334.67,139.87,355.08,128c.61-.35,1.1-.1,1.1.55a2.34,2.34,0,0,1-1.1,1.82l-20.41,11.83c-.61.35-1.1.1-1.1-.55A2.34,2.34,0,0,1,334.67,139.87Z" transform="translate(-87.32 -58.33)"/><path class="cls-4" d="M279.18,276.31l51.24-29.58c.61-.35,1.1-.1,1.1.55a2.34,2.34,0,0,1-1.1,1.82l-51.24,29.59c-.61.34-1.1.1-1.1-.56A2.35,2.35,0,0,1,279.18,276.31Z" transform="translate(-87.32 -58.33)"/><path class="cls-4" d="M334.67,244.27l20.41-11.83c.61-.35,1.1-.1,1.1.56a2.35,2.35,0,0,1-1.1,1.82l-20.41,11.83c-.61.35-1.1.1-1.1-.56A2.35,2.35,0,0,1,334.67,244.27Z" transform="translate(-87.32 -58.33)"/><path class="cls-4" d="M334.67,215.85,355.08,204c.61-.35,1.1-.1,1.1.55a2.34,2.34,0,0,1-1.1,1.82l-20.41,11.83c-.61.35-1.1.1-1.1-.55A2.34,2.34,0,0,1,334.67,215.85Z" transform="translate(-87.32 -58.33)"/><path class="cls-4" d="M334.67,225.34l20.41-11.83c.61-.35,1.1-.1,1.1.55a2.34,2.34,0,0,1-1.1,1.82l-20.41,11.83c-.61.35-1.1.1-1.1-.55A2.34,2.34,0,0,1,334.67,225.34Z" transform="translate(-87.32 -58.33)"/><path class="cls-13" d="M279.18,266.83l51.24-29.59c.61-.34,1.1-.1,1.1.56a2.35,2.35,0,0,1-1.1,1.82L279.18,269.2c-.61.35-1.1.1-1.1-.55A2.34,2.34,0,0,1,279.18,266.83Z" transform="translate(-87.32 -58.33)"/><path class="cls-4" d="M317.26,225.87l11.47-6.62c.6-.35,1.09-.1,1.09.55a2.35,2.35,0,0,1-1.09,1.82l-11.47,6.62c-.61.35-1.1.11-1.1-.55A2.34,2.34,0,0,1,317.26,225.87Z" transform="translate(-87.32 -58.33)"/><path class="cls-4" d="M279.18,181.42l29.89-17.27c.6-.35,1.09-.1,1.09.55a2.35,2.35,0,0,1-1.09,1.82l-29.89,17.27c-.61.35-1.1.1-1.1-.55A2.34,2.34,0,0,1,279.18,181.42Z" transform="translate(-87.32 -58.33)"/><path class="cls-14" d="M279.18,181.42l29.89-17.27c.6-.35,1.09-.1,1.09.55a2.35,2.35,0,0,1-1.09,1.82l-29.89,17.27c-.61.35-1.1.1-1.1-.55A2.34,2.34,0,0,1,279.18,181.42Z" transform="translate(-87.32 -58.33)"/><path class="cls-4" d="M279.18,190.89,289.32,185c.6-.35,1.09-.1,1.09.56a2.37,2.37,0,0,1-1.09,1.82l-10.14,5.86c-.61.35-1.1.1-1.1-.56A2.35,2.35,0,0,1,279.18,190.89Z" transform="translate(-87.32 -58.33)"/><path class="cls-14" d="M279.18,190.89,289.32,185c.6-.35,1.09-.1,1.09.56a2.37,2.37,0,0,1-1.09,1.82l-10.14,5.86c-.61.35-1.1.1-1.1-.56A2.35,2.35,0,0,1,279.18,190.89Z" transform="translate(-87.32 -58.33)"/><path class="cls-4" d="M279.18,200.39l10.14-5.87c.6-.35,1.09-.1,1.09.56a2.37,2.37,0,0,1-1.09,1.82l-10.14,5.86c-.61.35-1.1.1-1.1-.56A2.32,2.32,0,0,1,279.18,200.39Z" transform="translate(-87.32 -58.33)"/><path class="cls-14" d="M279.18,200.39l10.14-5.87c.6-.35,1.09-.1,1.09.56a2.37,2.37,0,0,1-1.09,1.82l-10.14,5.86c-.61.35-1.1.1-1.1-.56A2.32,2.32,0,0,1,279.18,200.39Z" transform="translate(-87.32 -58.33)"/><path class="cls-4" d="M279.18,209.88,289.32,204c.6-.35,1.09-.11,1.09.55a2.35,2.35,0,0,1-1.09,1.82l-10.14,5.86c-.61.35-1.1.1-1.1-.55A2.34,2.34,0,0,1,279.18,209.88Z" transform="translate(-87.32 -58.33)"/><path class="cls-14" d="M279.18,209.88,289.32,204c.6-.35,1.09-.11,1.09.55a2.35,2.35,0,0,1-1.09,1.82l-10.14,5.86c-.61.35-1.1.1-1.1-.55A2.34,2.34,0,0,1,279.18,209.88Z" transform="translate(-87.32 -58.33)"/><path class="cls-4" d="M279.18,219.37l10.14-5.86c.6-.35,1.09-.1,1.09.55a2.35,2.35,0,0,1-1.09,1.82l-10.14,5.86c-.61.35-1.1.1-1.1-.55A2.34,2.34,0,0,1,279.18,219.37Z" transform="translate(-87.32 -58.33)"/><path class="cls-14" d="M279.18,219.37l10.14-5.86c.6-.35,1.09-.1,1.09.55a2.35,2.35,0,0,1-1.09,1.82l-10.14,5.86c-.61.35-1.1.1-1.1-.55A2.34,2.34,0,0,1,279.18,219.37Z" transform="translate(-87.32 -58.33)"/><path class="cls-4" d="M313.31,161.7l13-7.48c.6-.35,1.1-.1,1.1.55a2.36,2.36,0,0,1-1.1,1.82l-13,7.48c-.6.35-1.09.1-1.09-.55A2.35,2.35,0,0,1,313.31,161.7Z" transform="translate(-87.32 -58.33)"/><path class="cls-14" d="M313.31,161.7l13-7.48c.6-.35,1.1-.1,1.1.55a2.36,2.36,0,0,1-1.1,1.82l-13,7.48c-.6.35-1.09.1-1.09-.55A2.35,2.35,0,0,1,313.31,161.7Z" transform="translate(-87.32 -58.33)"/><path class="cls-13" d="M308,212.23,337.84,195c.6-.35,1.09-.1,1.09.56a2.37,2.37,0,0,1-1.09,1.82L308,214.61c-.6.35-1.1.1-1.1-.56A2.35,2.35,0,0,1,308,212.23Z" transform="translate(-87.32 -58.33)"/><path class="cls-13" d="M325.19,211.81l29.89-17.27c.61-.35,1.1-.1,1.1.55a2.34,2.34,0,0,1-1.1,1.82l-29.89,17.27c-.6.35-1.09.1-1.09-.55A2.35,2.35,0,0,1,325.19,211.81Z" transform="translate(-87.32 -58.33)"/><path class="cls-13" d="M342.09,192.51l13-7.48c.61-.35,1.1-.1,1.1.56a2.35,2.35,0,0,1-1.1,1.82l-13,7.48c-.61.34-1.1.1-1.1-.56A2.35,2.35,0,0,1,342.09,192.51Z" transform="translate(-87.32 -58.33)"/><path class="cls-4" d="M295.62,181.4l29.89-17.27c.6-.35,1.09-.1,1.09.56a2.37,2.37,0,0,1-1.09,1.82l-29.89,17.26c-.61.35-1.1.11-1.1-.55A2.35,2.35,0,0,1,295.62,181.4Z" transform="translate(-87.32 -58.33)"/><path class="cls-14" d="M295.62,181.4l29.89-17.27c.6-.35,1.09-.1,1.09.56a2.37,2.37,0,0,1-1.09,1.82l-29.89,17.26c-.61.35-1.1.11-1.1-.55A2.35,2.35,0,0,1,295.62,181.4Z" transform="translate(-87.32 -58.33)"/><path class="cls-4" d="M329.75,161.68l13-7.48c.61-.35,1.1-.1,1.1.55a2.34,2.34,0,0,1-1.1,1.82l-13,7.48c-.6.35-1.09.1-1.09-.55A2.35,2.35,0,0,1,329.75,161.68Z" transform="translate(-87.32 -58.33)"/><path class="cls-14" d="M329.75,161.68l13-7.48c.61-.35,1.1-.1,1.1.55a2.34,2.34,0,0,1-1.1,1.82l-13,7.48c-.6.35-1.09.1-1.09-.55A2.35,2.35,0,0,1,329.75,161.68Z" transform="translate(-87.32 -58.33)"/></svg>