<?xml version="1.0" encoding="utf-8"?>
<!-- Generator: Adobe Illustrator 24.3.0, SVG Export Plug-In . SVG Version: 6.00 Build 0)  -->
<svg version="1.1" id="Calque_2_1_" xmlns="http://www.w3.org/2000/svg" xmlns:xlink="http://www.w3.org/1999/xlink" x="0px"
	 y="0px" viewBox="0 0 313 313" style="enable-background:new 0 0 313 313;" xml:space="preserve">
<style type="text/css">
	.st0{fill:none;stroke:#DADADA;stroke-width:22;stroke-linecap:round;stroke-linejoin:round;stroke-miterlimit:10;}
</style>
<path class="st0" d="M232.4,269c-20,15.7-44.5,27.5-72.8,27.7c-60.5,0.4-135.3-46.8-142-121.6"/>
<path class="st0" d="M253.4,249.7c-1.7,1.8-1.7,1.8-3.4,3.5"/>
<path class="st0" d="M96.9,95.4c-0.6,6.3-4.7,54.7,32,90.4C170.1,226,230,213,240.8,210.7c35.9-7.7,55.7-23.7,55.7-23.7
	s-9.6,20.8-27.6,44.3"/>
<path class="st0" d="M17.9,132C26.9,75.7,69,30.4,123.6,16.7c0.6-0.1,1,0.5,0.7,1c-7.8,10.4-17.5,21.6-22.1,46.4"/>
</svg>
