<svg id="Calque_2" data-name="Calque 2" xmlns="http://www.w3.org/2000/svg" viewBox="0 0 300.9 302.01"><defs><style>.cls-1{fill:none;stroke:#000;stroke-linecap:round;stroke-linejoin:round;stroke-width:22px;}</style></defs><path class="cls-1" d="M232.4,269c-20,15.7-44.5,27.5-72.8,27.7-60.5.4-135.3-46.8-142-121.6" transform="translate(-6.6 -5.69)"/><path class="cls-1" d="M253.4,249.7c-1.7,1.8-1.7,1.8-3.4,3.5" transform="translate(-6.6 -5.69)"/><path class="cls-1" d="M96.9,95.4c-.6,6.3-4.7,54.7,32,90.4C170.1,226,230,213,240.8,210.7c35.9-7.7,55.7-23.7,55.7-23.7a262.2,262.2,0,0,1-27.6,44.3" transform="translate(-6.6 -5.69)"/><path class="cls-1" d="M17.9,132A142.4,142.4,0,0,1,123.6,16.7a.66.66,0,0,1,.7,1c-7.8,10.4-17.5,21.6-22.1,46.4" transform="translate(-6.6 -5.69)"/></svg>