<svg id="Calque_1" data-name="Calque 1" xmlns="http://www.w3.org/2000/svg" viewBox="0 0 364.97 170.65"><defs><style>.cls-1{fill:#af1335;}.cls-2{fill:#e1e1e1;}.cls-3{fill:#9b9b9b;}.cls-4{fill:#222;}.cls-5{fill:#c4c4c4;}.cls-6{fill:#fff;}.cls-7{fill:none;}</style></defs><path class="cls-1" d="M390,327.55a8.23,8.23,0,0,1-4.12-1.11L338.39,299a2.38,2.38,0,0,1,0-4.12l86-49.65a.49.49,0,0,1,.47,0l51.42,29.69a2.38,2.38,0,0,1,0,4.12l-82.11,47.4A8.26,8.26,0,0,1,390,327.55Zm34.58-81.37-85.76,49.51a1.45,1.45,0,0,0,0,2.5l47.52,27.44a7.44,7.44,0,0,0,7.31,0l82.11-47.4a1.45,1.45,0,0,0,0-2.5Z" transform="translate(-117.52 -156.89)"/><path class="cls-2" d="M424.72,226.05l-11.44-67.86.92-.39-1.38-.79h0a1,1,0,0,0-1.06.08l-91.42,52.78a2.58,2.58,0,0,0-1.19,2.32l11.53,68.4a.85.85,0,0,0,.49.7h0l1.36.78.23-1.26-.08,0,90.87-52.46A2.57,2.57,0,0,0,424.72,226.05Z" transform="translate(-117.52 -156.89)"/><path class="cls-3" d="M320.85,211.72l-1.5-.66a2.13,2.13,0,0,0-.2,1.13l11.53,68.4a.85.85,0,0,0,.49.7h0l1.36.78.23-1.26-.08,0,4.6-2.65Z" transform="translate(-117.52 -156.89)"/><path class="cls-4" d="M425,229.2,333.55,282c-.7.4-1.31.17-1.43-.56L320.59,213a2.57,2.57,0,0,1,1.19-2.32l91.41-52.78c.71-.41,1.31-.17,1.44.56l11.53,68.4A2.61,2.61,0,0,1,425,229.2Z" transform="translate(-117.52 -156.89)"/><polygon class="cls-5" points="294.48 5.38 206.36 56.26 217.29 120.68 305.35 69.84 294.48 5.38"/><path class="cls-3" d="M482.44,261.58l-5,2.61-50-28.89a3.62,3.62,0,0,0-3.26.14l-86.29,49.81c-.82-.46-4.59-2.27-4.59-2.27l1.83,4.76h0a1.09,1.09,0,0,0,.51.57l52.69,30.42a3.62,3.62,0,0,0,3.26-.14l88.29-51a1.57,1.57,0,0,0,.74-.79h0Z" transform="translate(-117.52 -156.89)"/><path class="cls-2" d="M481.66,262.4l-90.48,52.24a3.69,3.69,0,0,1-3.35.14l-54-31.17c-.86-.5-.75-1.36.24-1.94l90.49-52.24a3.75,3.75,0,0,1,3.35-.14l54,31.18C482.76,261,482.65,261.83,481.66,262.4Z" transform="translate(-117.52 -156.89)"/><path class="cls-6" d="M481.66,261.88l-90.48,52.24a3.72,3.72,0,0,1-3.35.14l-54-31.17a1.11,1.11,0,0,1-.52-.59.91.91,0,0,0,.52,1.11l54,31.17a3.69,3.69,0,0,0,3.35-.14l90.48-52.24c.67-.38.93-.9.77-1.35A1.58,1.58,0,0,1,481.66,261.88Z" transform="translate(-117.52 -156.89)"/><path class="cls-5" d="M347.91,280.69l75.2-43.42a1.62,1.62,0,0,1,1.62,0l26.77,15.5a.57.57,0,0,1,0,1l-75.16,43.39a1.62,1.62,0,0,1-1.62,0l-26.81-15.47A.57.57,0,0,1,347.91,280.69Z" transform="translate(-117.52 -156.89)"/><path class="cls-3" d="M347.91,281.69l.27.15,74.93-43.26a1.62,1.62,0,0,1,1.62,0l26.5,15.34.27-.15a.57.57,0,0,0,0-1l-26.77-15.5a1.62,1.62,0,0,0-1.62,0l-75.2,43.42A.57.57,0,0,0,347.91,281.69Z" transform="translate(-117.52 -156.89)"/><polygon class="cls-4" points="309.23 84.31 243.91 122.02 241.01 120.34 306.33 82.63 309.23 84.31"/><polygon class="cls-4" points="316.35 88.42 255.08 123.79 252.18 122.11 313.45 86.74 316.35 88.42"/><polygon class="cls-4" points="320.99 91.09 248.85 132.74 245.95 131.06 318.08 89.42 320.99 91.09"/><polygon class="cls-4" points="325.63 93.77 253.49 135.42 250.59 133.74 322.72 92.09 325.63 93.77"/><polygon class="cls-4" points="330.26 96.45 258.13 138.09 255.22 136.42 327.36 94.77 330.26 96.45"/><polygon class="cls-4" points="239.97 124.3 237.06 125.97 234.16 124.3 237.06 122.62 239.97 124.3"/><polygon class="cls-4" points="250.21 126.6 244.18 130.08 241.28 128.41 247.31 124.92 250.21 126.6"/><path class="cls-5" d="M426,291.19l20.28-11.7a.88.88,0,0,0,0-1.66l-13.87-8a3.16,3.16,0,0,0-2.87,0l-20.27,11.7a.87.87,0,0,0,0,1.66l13.86,8A3.16,3.16,0,0,0,426,291.19Z" transform="translate(-117.52 -156.89)"/><path class="cls-3" d="M409.27,282.21l20.27-11.71a3.22,3.22,0,0,1,2.87,0l13.87,8a1.21,1.21,0,0,1,.49.49c.21-.4.05-.85-.49-1.17l-13.87-8a3.16,3.16,0,0,0-2.87,0l-20.27,11.7c-.55.32-.71.77-.5,1.17A1.18,1.18,0,0,1,409.27,282.21Z" transform="translate(-117.52 -156.89)"/><polygon id="SVGID" class="cls-7" points="294.48 5.38 206.36 56.26 217.29 120.68 305.35 69.84 294.48 5.38"/><polygon class="cls-1" points="239.54 96.12 246.67 92 246.88 93.24 239.75 97.36 239.54 96.12"/><polygon class="cls-1" points="247.82 91.34 251.7 89.1 251.91 90.33 248.03 92.58 247.82 91.34"/><polygon class="cls-1" points="257.75 85.61 260.56 83.98 260.77 85.22 257.96 86.85 257.75 85.61"/><polygon class="cls-1" points="255.7 86.79 256.66 86.24 256.87 87.48 255.91 88.03 255.7 86.79"/><polygon class="cls-1" points="252.87 88.43 254.61 87.42 254.82 88.66 253.07 89.67 252.87 88.43"/><polygon class="cls-1" points="245.18 86.65 248 85.03 248.2 86.27 245.39 87.89 245.18 86.65"/><polygon class="cls-1" points="238.59 90.47 244.09 87.28 244.3 88.52 238.8 91.7 238.59 90.47"/><polygon class="cls-1" points="246.48 70.4 251.99 67.22 252.2 68.46 246.69 71.64 246.48 70.4"/><polygon class="cls-1" points="243.65 72.04 245.39 71.03 245.6 72.27 243.86 73.28 243.65 72.04"/><polygon class="cls-1" points="247.4 76.06 252.91 72.88 253.12 74.12 247.61 77.3 247.4 76.06"/><polygon class="cls-1" points="244.57 77.7 246.31 76.69 246.52 77.93 244.78 78.94 244.57 77.7"/><polygon class="cls-1" points="242.42 45.96 232.04 51.95 231.84 50.72 242.21 44.72 242.42 45.96"/><polygon class="cls-1" points="246.07 43.85 243.51 45.33 243.3 44.09 245.87 42.61 246.07 43.85"/><polygon class="cls-1" points="264.31 42.64 253.93 48.64 253.72 47.4 264.1 41.41 264.31 42.64"/><polygon class="cls-1" points="267.96 40.53 265.39 42.01 265.19 40.78 267.75 39.29 267.96 40.53"/><polygon class="cls-1" points="235.33 53.16 232.52 54.78 232.31 53.55 235.12 51.92 235.33 53.16"/><polygon class="cls-1" points="252.43 49.49 249.62 51.12 249.41 49.88 252.22 48.25 252.43 49.49"/><polygon class="cls-1" points="241.93 49.35 236.42 52.53 236.21 51.29 241.72 48.11 241.93 49.35"/><polygon class="cls-1" points="244.76 47.71 243.02 48.72 242.81 47.48 244.55 46.47 244.76 47.71"/><polygon class="cls-1" points="251.41 43.87 245.9 47.06 245.69 45.82 251.2 42.64 251.41 43.87"/><polygon class="cls-1" points="254.24 42.24 252.5 43.24 252.29 42.01 254.03 41 254.24 42.24"/><polygon class="cls-1" points="251.96 46.66 249.14 48.29 248.94 47.05 251.75 45.42 251.96 46.66"/><polygon class="cls-1" points="258.55 42.85 253.04 46.03 252.84 44.79 258.34 41.61 258.55 42.85"/><polygon class="cls-1" points="261.38 41.21 259.64 42.22 259.43 40.98 261.18 39.97 261.38 41.21"/><polygon class="cls-1" points="238.75 54.29 233 57.61 232.79 56.37 238.54 53.05 238.75 54.29"/><polygon class="cls-1" points="244 51.25 239.84 53.66 239.63 52.42 243.79 50.02 244 51.25"/><polygon class="cls-1" points="247.9 49 245.09 50.63 244.88 49.39 247.69 47.76 247.9 49"/><polygon class="cls-1" points="275.16 36.38 269.41 39.71 269.2 38.47 274.95 35.15 275.16 36.38"/><polygon class="cls-1" points="280.4 33.35 276.25 35.76 276.04 34.52 280.19 32.11 280.4 33.35"/><polygon class="cls-1" points="284.3 31.1 281.49 32.72 281.28 31.48 284.1 29.86 284.3 31.1"/><polygon class="cls-1" points="272.91 73.75 278.66 70.43 278.87 71.67 273.12 74.99 272.91 73.75"/><polygon class="cls-1" points="267.66 76.78 271.82 74.38 272.03 75.62 267.87 78.02 267.66 76.78"/><polygon class="cls-1" points="263.76 79.04 266.57 77.41 266.78 78.65 263.97 80.28 263.76 79.04"/><polygon class="cls-1" points="271 77.97 276.75 74.65 276.96 75.88 271.21 79.21 271 77.97"/><polygon class="cls-1" points="265.75 81 269.91 78.6 270.12 79.84 265.96 82.24 265.75 81"/><polygon class="cls-1" points="261.85 83.26 264.67 81.63 264.87 82.87 262.06 84.49 261.85 83.26"/><polygon class="cls-1" points="247.78 72.74 249.72 71.62 249.93 72.86 247.99 73.98 247.78 72.74"/><polygon class="cls-1" points="244.13 74.85 246.69 73.37 246.9 74.61 244.33 76.09 244.13 74.85"/><polygon class="cls-1" points="239.26 57.1 233.51 60.42 233.31 59.18 239.06 55.86 239.26 57.1"/><polygon class="cls-1" points="244.51 54.07 240.35 56.47 240.15 55.23 244.3 52.83 244.51 54.07"/><polygon class="cls-1" points="248.41 51.81 245.6 53.44 245.39 52.2 248.2 50.57 248.41 51.81"/><polygon class="cls-1" points="235.93 62.13 233.99 63.25 233.78 62.01 235.72 60.89 235.93 62.13"/><polygon class="cls-1" points="239.59 60.01 237.02 61.5 236.81 60.26 239.38 58.78 239.59 60.01"/><polygon class="cls-1" points="244.82 56.99 240.68 59.38 240.47 58.15 244.61 55.76 244.82 56.99"/><polygon class="cls-1" points="250.42 80.54 252.37 79.41 252.57 80.65 250.63 81.78 250.42 80.54"/><polygon class="cls-1" points="246.77 82.65 249.34 81.17 249.54 82.4 246.98 83.89 246.77 82.65"/><polygon class="cls-1" points="241.54 85.67 245.68 83.28 245.89 84.52 241.75 86.91 241.54 85.67"/><polygon class="cls-1" points="253.38 75.95 257.52 73.56 257.73 74.79 253.59 77.18 253.38 75.95"/><polygon class="cls-1" points="246.62 79.63 252.19 76.41 252.4 77.65 246.83 80.87 246.62 79.63"/><polygon class="cls-1" points="243.78 81.27 245.53 80.26 245.74 81.5 243.99 82.51 243.78 81.27"/><polygon class="cls-1" points="241.06 82.84 242.81 81.83 243.02 83.07 241.27 84.08 241.06 82.84"/><polygon class="cls-1" points="241.44 66.86 246.95 63.68 247.16 64.92 241.65 68.1 241.44 66.86"/><polygon class="cls-1" points="238.6 68.5 240.35 67.49 240.56 68.73 238.81 69.74 238.6 68.5"/><polygon class="cls-1" points="241.82 63.54 243.76 62.41 243.97 63.65 242.03 64.78 241.82 63.54"/><polygon class="cls-1" points="248.68 65.8 250.62 64.68 250.83 65.92 248.88 67.04 248.68 65.8"/><polygon class="cls-1" points="251.44 64.2 256.11 61.51 256.31 62.75 251.65 65.44 251.44 64.2"/><polygon class="cls-1" points="256.93 61.04 259.7 59.44 259.91 60.67 257.14 62.27 256.93 61.04"/><polygon class="cls-1" points="238.16 65.65 240.73 64.17 240.94 65.41 238.37 66.89 238.16 65.65"/><polygon class="cls-1" points="237.92 62.74 239.86 61.62 240.07 62.86 238.13 63.98 237.92 62.74"/><polygon class="cls-1" points="234.26 64.86 236.83 63.38 237.04 64.61 234.47 66.1 234.26 64.86"/><polygon class="cls-1" points="245.86 67.43 247.6 66.42 247.81 67.66 246.07 68.67 245.86 67.43"/><polygon class="cls-1" points="243.14 69 244.88 67.99 245.09 69.23 243.35 70.24 243.14 69"/><polygon class="cls-1" points="256.54 83.21 262.49 79.78 262.69 81.01 256.74 84.45 256.54 83.21"/><polygon class="cls-1" points="249.87 87.07 255.45 83.84 255.66 85.08 250.08 88.3 249.87 87.07"/><polygon class="cls-1" points="247.04 88.7 248.78 87.69 248.99 88.93 247.25 89.94 247.04 88.7"/><polygon class="cls-1" points="244.32 90.28 246.06 89.27 246.27 90.5 244.53 91.51 244.32 90.28"/><polygon class="cls-1" points="242.83 91.13 239.07 93.31 239.28 94.55 243.04 92.37 242.83 91.13"/><path class="cls-1" d="M210,327.55a8.26,8.26,0,0,1-4.12-1.11h0L123.73,279a2.38,2.38,0,0,1,0-4.12l51.42-29.69a.49.49,0,0,1,.47,0l86,49.65a2.38,2.38,0,0,1,0,4.12l-47.53,27.44A8.23,8.23,0,0,1,210,327.55Zm-3.65-1.92a7.44,7.44,0,0,0,7.31,0l47.52-27.44a1.45,1.45,0,0,0,0-2.5l-85.76-49.51-.16.09-51,29.46a1.45,1.45,0,0,0,0,2.5Z" transform="translate(-117.52 -156.89)"/><polygon class="cls-1" points="158.07 69.26 142.92 60.52 142.92 62.32 158.07 71.07 158.07 69.26"/><polygon class="cls-1" points="140.74 59.27 136.63 56.9 136.63 58.71 140.74 61.08 140.74 59.27"/><polygon class="cls-1" points="121.51 48.18 113.12 43.33 113.11 45.13 121.51 49.98 121.51 48.18"/><polygon class="cls-1" points="129.18 52.6 123.1 49.09 123.1 50.9 129.17 54.41 129.18 52.6"/><polygon class="cls-1" points="134.87 55.89 130.76 53.52 130.76 55.33 134.87 57.7 134.87 55.89"/><path class="cls-2" d="M175.28,226.05l11.44-67.86-.92-.39,1.38-.79h0a1,1,0,0,1,1.06.08l91.42,52.78a2.58,2.58,0,0,1,1.19,2.32l-11.53,68.4a.85.85,0,0,1-.49.7h0l-1.36.78-.23-1.26.08,0-90.87-52.46A2.57,2.57,0,0,1,175.28,226.05Z" transform="translate(-117.52 -156.89)"/><path class="cls-3" d="M279.15,211.72l1.5-.66a2.13,2.13,0,0,1,.2,1.13l-11.53,68.4a.85.85,0,0,1-.49.7h0l-1.36.78-.23-1.26.08,0-4.6-2.65Z" transform="translate(-117.52 -156.89)"/><path class="cls-4" d="M175,229.2,266.45,282c.7.4,1.31.17,1.43-.56L279.41,213a2.57,2.57,0,0,0-1.19-2.32l-91.41-52.78c-.71-.41-1.31-.17-1.44.56l-11.53,68.4A2.61,2.61,0,0,0,175,229.2Z" transform="translate(-117.52 -156.89)"/><polygon class="cls-5" points="70.48 5.38 158.6 56.26 147.68 120.68 59.62 69.84 70.48 5.38"/><path class="cls-3" d="M117.56,261.58l5,2.61,50-28.89a3.62,3.62,0,0,1,3.26.14l86.29,49.81c.82-.46,4.59-2.27,4.59-2.27l-1.83,4.76h0a1.09,1.09,0,0,1-.51.57l-52.69,30.42a3.62,3.62,0,0,1-3.26-.14l-88.29-51a1.57,1.57,0,0,1-.74-.79h0Z" transform="translate(-117.52 -156.89)"/><path class="cls-2" d="M118.34,262.4l90.48,52.24a3.69,3.69,0,0,0,3.35.14l54-31.17c.86-.5.75-1.36-.24-1.94l-90.49-52.24a3.75,3.75,0,0,0-3.35-.14l-54,31.18C117.24,261,117.35,261.83,118.34,262.4Z" transform="translate(-117.52 -156.89)"/><path class="cls-6" d="M118.34,261.88l90.48,52.24a3.72,3.72,0,0,0,3.35.14l54-31.17a1.11,1.11,0,0,0,.52-.59.91.91,0,0,1-.52,1.11l-54,31.17a3.69,3.69,0,0,1-3.35-.14L118.34,262.4c-.67-.38-.93-.9-.77-1.35A1.58,1.58,0,0,0,118.34,261.88Z" transform="translate(-117.52 -156.89)"/><path class="cls-5" d="M252.09,280.69l-75.2-43.42a1.62,1.62,0,0,0-1.62,0l-26.77,15.5a.57.57,0,0,0,0,1l75.16,43.39a1.62,1.62,0,0,0,1.62,0l26.81-15.47A.57.57,0,0,0,252.09,280.69Z" transform="translate(-117.52 -156.89)"/><path class="cls-3" d="M252.09,281.69l-.27.15-74.93-43.26a1.62,1.62,0,0,0-1.62,0l-26.5,15.34-.27-.15a.57.57,0,0,1,0-1l26.77-15.5a1.62,1.62,0,0,1,1.62,0l75.2,43.42A.57.57,0,0,1,252.09,281.69Z" transform="translate(-117.52 -156.89)"/><polygon class="cls-4" points="62.03 87.94 125.68 124.68 128.43 122.92 64.94 86.27 62.03 87.94"/><polygon class="cls-4" points="57.89 93.77 115.68 127.14 117.66 124.92 60.8 92.09 57.89 93.77"/><polygon class="cls-4" points="43.98 91.09 116.11 132.74 119.02 131.06 46.88 89.42 43.98 91.09"/><polygon class="cls-4" points="39.34 93.77 111.48 135.42 114.38 133.74 42.25 92.09 39.34 93.77"/><polygon class="cls-4" points="34.7 96.45 106.84 138.09 109.74 136.42 37.61 94.77 34.7 96.45"/><polygon class="cls-4" points="125 124.3 127.91 125.97 130.81 124.3 127.91 122.62 125 124.3"/><polygon class="cls-4" points="114.76 126.6 120.79 130.08 123.69 128.41 117.66 124.92 114.76 126.6"/><path class="cls-5" d="M174,291.19l-20.28-11.7a.88.88,0,0,1,0-1.66l13.87-8a3.16,3.16,0,0,1,2.87,0l20.27,11.7a.87.87,0,0,1,0,1.66l-13.86,8A3.16,3.16,0,0,1,174,291.19Z" transform="translate(-117.52 -156.89)"/><path class="cls-3" d="M190.73,282.21,170.46,270.5a3.22,3.22,0,0,0-2.87,0l-13.87,8a1.21,1.21,0,0,0-.49.49c-.21-.4,0-.85.49-1.17l13.87-8a3.16,3.16,0,0,1,2.87,0l20.27,11.7c.55.32.71.77.5,1.17A1.18,1.18,0,0,0,190.73,282.21Z" transform="translate(-117.52 -156.89)"/><polygon id="SVGID-2" data-name="SVGID" class="cls-7" points="70.48 5.38 158.6 56.26 147.68 120.68 59.62 69.84 70.48 5.38"/><polygon class="cls-1" points="90.22 29.26 97.34 33.38 97.55 32.15 90.42 28.02 90.22 29.26"/><polygon class="cls-1" points="98.49 34.04 102.38 36.29 102.58 35.05 98.7 32.8 98.49 34.04"/><polygon class="cls-1" points="108.42 39.77 111.23 41.4 111.44 40.16 108.63 38.54 108.42 39.77"/><polygon class="cls-1" points="106.37 38.59 107.33 39.15 107.54 37.91 106.58 37.35 106.37 38.59"/><polygon class="cls-1" points="103.54 36.95 105.28 37.96 105.49 36.72 103.75 35.72 103.54 36.95"/><polygon class="cls-1" points="95.86 38.73 98.67 40.36 98.88 39.12 96.06 37.49 95.86 38.73"/><polygon class="cls-1" points="89.26 34.92 94.77 38.1 94.97 36.86 89.47 33.68 89.26 34.92"/><polygon class="cls-1" points="97.16 54.98 102.66 58.17 102.87 56.93 97.36 53.74 97.16 54.98"/><polygon class="cls-1" points="94.32 53.34 96.07 54.35 96.28 53.12 94.53 52.11 94.32 53.34"/><polygon class="cls-1" points="98.07 49.32 103.58 52.5 103.79 51.26 98.28 48.08 98.07 49.32"/><polygon class="cls-1" points="95.24 47.68 96.98 48.69 97.19 47.45 95.45 46.44 95.24 47.68"/><polygon class="cls-1" points="93.09 79.42 82.72 73.43 82.51 74.67 92.88 80.66 93.09 79.42"/><polygon class="cls-1" points="96.75 81.54 94.18 80.05 93.97 81.29 96.54 82.78 96.75 81.54"/><polygon class="cls-1" points="114.98 82.74 104.6 76.74 104.39 77.98 114.77 83.98 114.98 82.74"/><polygon class="cls-1" points="118.63 84.85 116.06 83.37 115.86 84.61 118.42 86.09 118.63 84.85"/><polygon class="cls-1" points="86 72.22 83.19 70.6 82.98 71.84 85.8 73.46 86 72.22"/><polygon class="cls-1" points="103.1 75.89 100.29 74.27 100.08 75.51 102.89 77.13 103.1 75.89"/><polygon class="cls-1" points="92.6 76.04 87.09 72.85 86.88 74.09 92.39 77.28 92.6 76.04"/><polygon class="cls-1" points="95.43 77.67 93.69 76.67 93.48 77.91 95.22 78.91 95.43 77.67"/><polygon class="cls-1" points="102.08 81.51 96.57 78.33 96.36 79.56 101.87 82.75 102.08 81.51"/><polygon class="cls-1" points="104.91 83.15 103.17 82.14 102.96 83.38 104.7 84.39 104.91 83.15"/><polygon class="cls-1" points="102.63 78.72 99.82 77.1 99.61 78.33 102.42 79.96 102.63 78.72"/><polygon class="cls-1" points="109.22 82.53 103.72 79.35 103.51 80.59 109.01 83.77 109.22 82.53"/><polygon class="cls-1" points="112.06 84.17 110.31 83.16 110.1 84.4 111.85 85.41 112.06 84.17"/><polygon class="cls-1" points="89.42 71.1 83.67 67.77 83.46 69.01 89.21 72.33 89.42 71.1"/><polygon class="cls-1" points="94.67 74.13 90.51 71.73 90.3 72.96 94.46 75.37 94.67 74.13"/><polygon class="cls-1" points="98.57 76.38 95.76 74.76 95.55 76 98.36 77.62 98.57 76.38"/><polygon class="cls-1" points="125.83 89 120.08 85.68 119.87 86.91 125.62 90.24 125.83 89"/><polygon class="cls-1" points="131.08 92.03 126.92 89.63 126.71 90.87 130.87 93.27 131.08 92.03"/><polygon class="cls-1" points="134.97 94.29 132.16 92.66 131.96 93.9 134.77 95.53 134.97 94.29"/><polygon class="cls-1" points="123.58 51.63 129.33 54.96 129.54 53.72 123.79 50.4 123.58 51.63"/><polygon class="cls-1" points="118.33 48.6 122.49 51 122.7 49.77 118.54 47.36 118.33 48.6"/><polygon class="cls-1" points="114.43 46.35 117.25 47.97 117.45 46.73 114.64 45.11 114.43 46.35"/><polygon class="cls-1" points="121.67 47.41 127.42 50.74 127.63 49.5 121.88 46.18 121.67 47.41"/><polygon class="cls-1" points="116.42 44.38 120.58 46.78 120.79 45.55 116.63 43.14 116.42 44.38"/><polygon class="cls-1" points="112.53 42.13 115.34 43.75 115.55 42.51 112.73 40.89 112.53 42.13"/><polygon class="cls-1" points="98.45 52.65 100.39 53.77 100.6 52.53 98.66 51.41 98.45 52.65"/><polygon class="cls-1" points="94.8 50.53 97.36 52.02 97.57 50.78 95.01 49.29 94.8 50.53"/><polygon class="cls-1" points="89.94 68.28 84.19 64.96 83.98 66.2 89.73 69.52 89.94 68.28"/><polygon class="cls-1" points="95.18 71.32 91.03 68.92 90.82 70.15 94.97 72.56 95.18 71.32"/><polygon class="cls-1" points="99.08 73.57 96.27 71.95 96.06 73.19 98.88 74.81 99.08 73.57"/><polygon class="cls-1" points="86.61 63.26 84.66 62.13 84.45 63.37 86.4 64.49 86.61 63.26"/><polygon class="cls-1" points="90.26 65.37 87.69 63.89 87.49 65.12 90.05 66.61 90.26 65.37"/><polygon class="cls-1" points="95.49 68.39 91.35 66 91.14 67.24 95.28 69.63 95.49 68.39"/><polygon class="cls-1" points="101.09 44.85 103.04 45.97 103.25 44.73 101.3 43.61 101.09 44.85"/><polygon class="cls-1" points="97.44 42.73 100.01 44.22 100.22 42.98 97.65 41.5 97.44 42.73"/><polygon class="cls-1" points="92.21 39.71 96.35 42.1 96.56 40.87 92.42 38.48 92.21 39.71"/><polygon class="cls-1" points="104.05 49.44 108.19 51.83 108.4 50.59 104.26 48.2 104.05 49.44"/><polygon class="cls-1" points="97.29 45.75 102.86 48.97 103.07 47.73 97.5 44.51 97.29 45.75"/><polygon class="cls-1" points="94.46 44.11 96.2 45.12 96.41 43.88 94.67 42.88 94.46 44.11"/><polygon class="cls-1" points="91.74 42.54 93.48 43.55 93.69 42.31 91.95 41.3 91.74 42.54"/><polygon class="cls-1" points="92.11 58.52 97.62 61.7 97.83 60.47 92.32 57.28 92.11 58.52"/><polygon class="cls-1" points="89.28 56.88 91.02 57.89 91.23 56.65 89.49 55.65 89.28 56.88"/><polygon class="cls-1" points="92.49 61.85 94.43 62.97 94.64 61.73 92.7 60.61 92.49 61.85"/><polygon class="cls-1" points="99.35 59.58 101.29 60.7 101.5 59.47 99.56 58.34 99.35 59.58"/><polygon class="cls-1" points="102.11 61.18 106.78 63.87 106.98 62.63 102.32 59.94 102.11 61.18"/><polygon class="cls-1" points="107.6 64.35 110.38 65.95 110.58 64.71 107.81 63.11 107.6 64.35"/><polygon class="cls-1" points="88.83 59.73 91.4 61.22 91.61 59.98 89.04 58.49 88.83 59.73"/><polygon class="cls-1" points="88.59 62.64 90.53 63.76 90.74 62.52 88.8 61.4 88.59 62.64"/><polygon class="cls-1" points="84.94 60.52 87.5 62.01 87.71 60.77 85.14 59.29 84.94 60.52"/><polygon class="cls-1" points="96.53 57.95 98.27 58.96 98.48 57.72 96.74 56.72 96.53 57.95"/><polygon class="cls-1" points="93.81 56.38 95.55 57.39 95.76 56.15 94.02 55.14 93.81 56.38"/><polygon class="cls-1" points="107.21 42.17 113.16 45.61 113.36 44.37 107.42 40.93 107.21 42.17"/><polygon class="cls-1" points="100.54 38.32 106.12 41.54 106.33 40.3 100.75 37.08 100.54 38.32"/><polygon class="cls-1" points="97.71 36.68 99.45 37.69 99.66 36.45 97.92 35.44 97.71 36.68"/><polygon class="cls-1" points="94.99 35.11 96.73 36.12 96.94 34.88 95.2 33.87 94.99 35.11"/><polygon class="cls-1" points="93.5 34.25 89.74 32.07 89.95 30.84 93.71 33.01 93.5 34.25"/><polygon class="cls-4" points="55.74 84.31 58.64 85.98 61.55 84.31 58.64 82.63 55.74 84.31"/><polygon class="cls-4" points="48.62 88.42 54.65 91.9 57.55 90.22 51.52 86.74 48.62 88.42"/></svg>