<svg id="Layer_1" data-name="Layer 1" xmlns="http://www.w3.org/2000/svg" viewBox="0 0 716.12 635.88"><defs><style>.cls-1{fill:#fff;}.cls-2{fill:#231f20;}.cls-3{fill:#a7a9ac;}.cls-4{fill:#808285;}.cls-5{fill:#f1f2f2;}.cls-6{fill:#ff8592;}.cls-7{fill:#40e5ff;}.cls-8{fill:#fff380;}.cls-9{fill:#aadc00;}</style></defs><path class="cls-1" d="M145.14,420.39H125.36L99.71,398.18,74.07,420.39H54.3A13.62,13.62,0,0,0,40.71,434v90.85A13.62,13.62,0,0,0,54.3,538.42H74.08l25.63,22.21,25.65-22.21h19.78a13.62,13.62,0,0,0,13.59-13.59V434A13.62,13.62,0,0,0,145.14,420.39Z" transform="translate(-39.01 -58.19)"/><path d="M99.71,562.33a1.69,1.69,0,0,1-1.11-.42L73.45,540.12H54.3A15.31,15.31,0,0,1,39,524.83V434A15.31,15.31,0,0,1,54.3,418.69H73.44L98.6,396.9a1.69,1.69,0,0,1,2.23,0L126,418.69h19.15A15.31,15.31,0,0,1,160.43,434v90.85a15.31,15.31,0,0,1-15.29,15.29H126l-25.17,21.79A1.7,1.7,0,0,1,99.71,562.33ZM54.3,422.09A11.91,11.91,0,0,0,42.4,434v90.85a11.91,11.91,0,0,0,11.9,11.89H74.08a1.68,1.68,0,0,1,1.11.42l24.52,21.24,24.54-21.24a1.7,1.7,0,0,1,1.11-.42h19.78A11.9,11.9,0,0,0,157,524.83V434a11.9,11.9,0,0,0-11.89-11.89H125.36a1.68,1.68,0,0,1-1.11-.42L99.71,400.43,75.19,421.67a1.71,1.71,0,0,1-1.12.42Z" transform="translate(-39.01 -58.19)"/><path class="cls-1" d="M604.72,583.81V366.09a23.5,23.5,0,0,0-23.5-23.51H212a23.5,23.5,0,0,0-23.51,23.51V583.81Z" transform="translate(-39.01 -58.19)"/><path class="cls-2" d="M604.72,585.51H188.48a1.7,1.7,0,0,1-1.7-1.7V366.09A25.24,25.24,0,0,1,212,340.88H581.22a25.23,25.23,0,0,1,25.2,25.21V583.81A1.7,1.7,0,0,1,604.72,585.51Zm-414.54-3.4H603v-216a21.83,21.83,0,0,0-21.8-21.81H212a21.83,21.83,0,0,0-21.81,21.81Z" transform="translate(-39.01 -58.19)"/><rect class="cls-3" x="148.91" y="525.62" width="417.38" height="35.74"/><path class="cls-2" d="M605.29,621.25H187.91a1.7,1.7,0,0,1-1.69-1.7V583.81a1.7,1.7,0,0,1,1.69-1.7H605.29a1.7,1.7,0,0,1,1.7,1.7v35.74A1.7,1.7,0,0,1,605.29,621.25Zm-415.68-3.4h414V585.51h-414Z" transform="translate(-39.01 -58.19)"/><rect class="cls-4" x="164.22" y="299.7" width="386.75" height="210.61"/><path d="M590,570.2H203.23a1.7,1.7,0,0,1-1.7-1.7V357.89a1.7,1.7,0,0,1,1.7-1.7H590a1.7,1.7,0,0,1,1.7,1.7V568.5A1.7,1.7,0,0,1,590,570.2Zm-385-3.4H588.27V359.59H204.93Z" transform="translate(-39.01 -58.19)"/><polygon class="cls-5" points="420.14 614.97 295.05 614.97 302.7 561.36 412.48 561.36 420.14 614.97"/><path class="cls-2" d="M459.21,674.86H334.05a1.71,1.71,0,0,1-1.68-1.94L340,619.31a1.7,1.7,0,0,1,1.68-1.46H451.49a1.7,1.7,0,0,1,1.68,1.46l7.59,53.15a1.63,1.63,0,0,1,.15.7A1.7,1.7,0,0,1,459.21,674.86ZM336,671.46H457.18L450,621.25H343.19Z" transform="translate(-39.01 -58.19)"/><line class="cls-1" x1="328.22" y1="543.5" x2="386.98" y2="543.5"/><path class="cls-2" d="M426,603.38H367.22a1.7,1.7,0,1,1,0-3.39H426a1.7,1.7,0,1,1,0,3.39Z" transform="translate(-39.01 -58.19)"/><line class="cls-1" x1="357.59" y1="537.28" x2="357.59" y2="549.7"/><path class="cls-2" d="M396.6,609.59a1.7,1.7,0,0,1-1.7-1.7V595.47a1.7,1.7,0,1,1,3.4,0v12.42A1.7,1.7,0,0,1,396.6,609.59Z" transform="translate(-39.01 -58.19)"/><path class="cls-1" d="M498.64,692.37c0-.27,0-.51,0-.77a18.44,18.44,0,0,0-18.44-18.44H313a18.44,18.44,0,0,0-18.44,18.44c0,.26,0,.5,0,.77Z" transform="translate(-39.01 -58.19)"/><path class="cls-2" d="M498.64,694.06H294.56a1.7,1.7,0,0,1-1.7-1.61c0-.44,0-.64,0-.85A20.16,20.16,0,0,1,313,671.46H480.24a20.16,20.16,0,0,1,20.14,20.14c0,.19,0,.38,0,.57A2,2,0,0,1,498.64,694.06Zm-202.39-3.39H496.92a16.77,16.77,0,0,0-16.68-15.81H313A16.75,16.75,0,0,0,296.25,690.67Z" transform="translate(-39.01 -58.19)"/><rect class="cls-1" x="214.39" y="126.06" width="286.42" height="384.25"/><path d="M539.81,570.2H253.39a1.7,1.7,0,0,1-1.69-1.7V184.25a1.7,1.7,0,0,1,1.69-1.7H539.81a1.7,1.7,0,0,1,1.7,1.7V568.5A1.7,1.7,0,0,1,539.81,570.2Zm-284.72-3.4h283V186h-283Z" transform="translate(-39.01 -58.19)"/><path class="cls-1" d="M529.84,159.59H263.37a10,10,0,0,0-10,10v14.69H539.81V169.56A10,10,0,0,0,529.84,159.59Z" transform="translate(-39.01 -58.19)"/><path d="M539.81,186H253.39a1.7,1.7,0,0,1-1.69-1.7V169.56a11.68,11.68,0,0,1,11.67-11.67H529.84a11.68,11.68,0,0,1,11.67,11.67v14.69A1.7,1.7,0,0,1,539.81,186Zm-284.72-3.4h283v-13a8.28,8.28,0,0,0-8.27-8.27H263.37a8.29,8.29,0,0,0-8.28,8.27Z" transform="translate(-39.01 -58.19)"/><rect class="cls-6" x="231.01" y="146.15" width="228.04" height="12.47"/><rect class="cls-6" x="231.01" y="169.6" width="207.34" height="12.47"/><rect class="cls-7" x="231.01" y="193.05" width="254.54" height="12.47"/><rect class="cls-7" x="231.01" y="216.5" width="37.74" height="12.47"/><rect class="cls-7" x="290.52" y="216.5" width="103.12" height="12.47"/><rect class="cls-7" x="231.01" y="239.95" width="240.79" height="12.47"/><rect class="cls-8" x="231.01" y="263.41" width="254.54" height="12.46"/><rect class="cls-8" x="231.01" y="380.22" width="70.06" height="12.46"/><rect class="cls-9" x="231.01" y="286.86" width="205.53" height="12.47"/><rect class="cls-9" x="231.01" y="310.31" width="254.18" height="12.47"/><rect class="cls-9" x="231.01" y="333.76" width="197.53" height="12.47"/><rect class="cls-9" x="231.01" y="357.21" width="254.18" height="12.47"/><polygon class="cls-1" points="391.02 32.39 429.97 54.88 391.02 77.37 391.02 32.39"/><path d="M430,137.25a1.68,1.68,0,0,1-.85-.22,1.71,1.71,0,0,1-.85-1.48v-45a1.7,1.7,0,0,1,2.55-1.47l38.95,22.49a1.7,1.7,0,0,1,0,3L430.88,137A1.74,1.74,0,0,1,430,137.25Zm1.7-43.73v39.09l33.85-19.55Z" transform="translate(-39.01 -58.19)"/><polygon class="cls-1" points="446.24 32.39 485.19 54.88 446.24 77.37 446.24 32.39"/><path d="M485.25,137.25a1.75,1.75,0,0,1-.86-.22,1.73,1.73,0,0,1-.85-1.48v-45a1.7,1.7,0,0,1,2.55-1.47l39,22.49a1.7,1.7,0,0,1,0,3l-39,22.49A1.67,1.67,0,0,1,485.25,137.25Zm1.69-43.73v39.09l33.86-19.55Z" transform="translate(-39.01 -58.19)"/><polygon class="cls-5" points="376.74 406.63 376.74 451.52 338.39 451.5 338.39 406.68 318.67 426.4 318.67 458.65 335.92 475.89 335.93 510.17 379.25 510.17 379.28 475.89 396.51 458.65 396.52 426.4 376.74 406.63"/><path class="cls-2" d="M418.26,570.05H374.94a1.7,1.7,0,0,1-1.7-1.69l0-33.58L356.48,518a1.7,1.7,0,0,1-.5-1.2V484.59a1.7,1.7,0,0,1,.5-1.2l19.72-19.72a1.7,1.7,0,0,1,2.9,1.2V508l34.95,0V464.82a1.69,1.69,0,0,1,1.05-1.57,1.71,1.71,0,0,1,1.85.36l19.78,19.78a1.7,1.7,0,0,1,.5,1.2v32.25a1.7,1.7,0,0,1-.5,1.2L420,534.78l0,33.58A1.7,1.7,0,0,1,418.26,570.05Zm-41.63-3.39h39.93l0-32.58a1.73,1.73,0,0,1,.49-1.2l16.74-16.74V485.29l-16.38-16.37v40.79a1.71,1.71,0,0,1-1.7,1.7h0l-38.35,0a1.7,1.7,0,0,1-1.7-1.7V469l-16.32,16.32v30.85l16.74,16.74a1.7,1.7,0,0,1,.5,1.2Z" transform="translate(-39.01 -58.19)"/><path d="M406.72,570.05a1.7,1.7,0,0,1-1.7-1.69V534.58a1.7,1.7,0,1,1,3.4,0v33.78A1.7,1.7,0,0,1,406.72,570.05Z" transform="translate(-39.01 -58.19)"/><path d="M569.41,344.28a1.7,1.7,0,0,1-1.7-1.7V330.69a1.7,1.7,0,0,1,3.4,0v11.89A1.7,1.7,0,0,1,569.41,344.28Z" transform="translate(-39.01 -58.19)"/><path d="M569.41,315a1.7,1.7,0,0,1-1.7-1.7V293a1.7,1.7,0,0,1,3.4,0v20.29A1.7,1.7,0,0,1,569.41,315Z" transform="translate(-39.01 -58.19)"/><path d="M569.41,277.3a1.7,1.7,0,0,1-1.7-1.7V263.71a1.7,1.7,0,0,1,1.7-1.7H581.3a1.7,1.7,0,1,1,0,3.4H571.11V275.6A1.7,1.7,0,0,1,569.41,277.3Z" transform="translate(-39.01 -58.19)"/><path d="M619.23,265.41H598.81a1.7,1.7,0,0,1,0-3.4h20.42a1.7,1.7,0,0,1,0,3.4Z" transform="translate(-39.01 -58.19)"/><path d="M648.62,265.41H636.73a1.7,1.7,0,1,1,0-3.4h10.19v-10.2a1.7,1.7,0,0,1,3.4,0v11.9A1.7,1.7,0,0,1,648.62,265.41Z" transform="translate(-39.01 -58.19)"/><path d="M648.62,241.38a1.7,1.7,0,0,1-1.7-1.7v-11.9a1.7,1.7,0,0,1,3.4,0v11.9A1.7,1.7,0,0,1,648.62,241.38Z" transform="translate(-39.01 -58.19)"/><path class="cls-1" d="M739.83,123.32H587.25a13.63,13.63,0,0,0-13.59,13.59V185L524.2,227.78H739.83a13.62,13.62,0,0,0,13.59-13.59V136.91A13.62,13.62,0,0,0,739.83,123.32Z" transform="translate(-39.01 -58.19)"/><path d="M739.83,229.48H524.2a1.7,1.7,0,0,1-1.11-3L572,184.18V136.91a15.31,15.31,0,0,1,15.29-15.29H739.83a15.31,15.31,0,0,1,15.29,15.29v77.28A15.31,15.31,0,0,1,739.83,229.48Zm-211.07-3.39H739.83a11.91,11.91,0,0,0,11.89-11.9V136.91A11.91,11.91,0,0,0,739.83,125H587.25a11.91,11.91,0,0,0-11.89,11.9V185a1.7,1.7,0,0,1-.59,1.28Z" transform="translate(-39.01 -58.19)"/><polygon points="582.34 138.29 582.34 117.75 560 117.75 560 138.29 556.42 138.29 556.42 96.42 560 96.42 560 114.27 582.34 114.27 582.34 96.42 585.91 96.42 585.91 138.29 582.34 138.29"/><polygon points="602.21 138.29 602.21 99.91 592.72 99.91 592.72 96.42 615.36 96.42 615.36 99.91 605.87 99.91 605.87 138.29 602.21 138.29"/><polygon points="664.03 138.29 659.71 107.06 644.27 138.29 643.6 138.29 627.99 106.83 623.7 138.29 620.27 138.29 626.27 96.42 626.45 96.42 643.97 131.76 661.31 96.42 661.48 96.42 667.51 138.29 664.03 138.29"/><polygon points="676.6 138.29 676.6 96.42 680.17 96.42 680.17 134.86 696.54 134.86 696.54 138.29 676.6 138.29"/><path d="M188.48,367.79H176.59a1.7,1.7,0,1,1,0-3.4h11.89a1.7,1.7,0,1,1,0,3.4Z" transform="translate(-39.01 -58.19)"/><path d="M159.92,367.79H140.48a1.7,1.7,0,0,1,0-3.4h19.44a1.7,1.7,0,1,1,0,3.4Zm-36.1,0H104.38a1.7,1.7,0,0,1,0-3.4h19.44a1.7,1.7,0,0,1,0,3.4Z" transform="translate(-39.01 -58.19)"/><path d="M87.71,367.79H75.82a1.7,1.7,0,0,1-1.7-1.7v-11.9a1.7,1.7,0,0,1,3.4,0v10.2H87.71a1.7,1.7,0,0,1,0,3.4Z" transform="translate(-39.01 -58.19)"/><path d="M75.82,324.2a1.7,1.7,0,0,1-1.7-1.7V310.61a1.7,1.7,0,0,1,3.4,0V322.5A1.7,1.7,0,0,1,75.82,324.2Z" transform="translate(-39.01 -58.19)"/><path class="cls-1" d="M200.4,283.53V218.67a13.63,13.63,0,0,0-13.6-13.59H54.3a13.62,13.62,0,0,0-13.59,13.59v77.6a13.63,13.63,0,0,0,13.59,13.6H230.81Z" transform="translate(-39.01 -58.19)"/><path d="M230.81,311.57H54.3A15.31,15.31,0,0,1,39,296.27v-77.6A15.31,15.31,0,0,1,54.3,203.38H186.8a15.31,15.31,0,0,1,15.3,15.29v64.08l29.82,25.83a1.7,1.7,0,0,1-1.11,3ZM54.3,206.77a11.92,11.92,0,0,0-11.9,11.9v77.6a11.92,11.92,0,0,0,11.9,11.9h172l-27-23.36a1.69,1.69,0,0,1-.58-1.28V218.67a11.92,11.92,0,0,0-11.9-11.9Z" transform="translate(-39.01 -58.19)"/><path d="M161.76,279.53a16.29,16.29,0,0,1-8.13-2.06,19.85,19.85,0,0,1-6.39-6.36l2.83-1.46c3.19,4.73,7,7.13,11.19,7.13a12.75,12.75,0,0,0,5.38-1.16,9.22,9.22,0,0,0,3.89-3.13,7.33,7.33,0,0,0,1.34-4.18,7.74,7.74,0,0,0-2-4.91c-1.7-2.09-4.7-4.51-9.16-7.41-4.27-2.79-6.95-4.8-7.94-6a9.6,9.6,0,0,1-2.6-6.41,8.73,8.73,0,0,1,1.51-5,10.25,10.25,0,0,1,4.24-3.5,14,14,0,0,1,6-1.3,14.59,14.59,0,0,1,6.44,1.47,20.59,20.59,0,0,1,6,4.94l-2.77,1.81a18.37,18.37,0,0,0-4.72-4,10.83,10.83,0,0,0-5-1.19,8.86,8.86,0,0,0-5.82,1.88,5.87,5.87,0,0,0-2.3,4.66,6.86,6.86,0,0,0,.8,3.19,11.4,11.4,0,0,0,2.78,3.24c.73.61,2.91,2.07,6.86,4.58,4.41,2.81,7.47,5.33,9.08,7.48a10.55,10.55,0,0,1,2.37,6.32,10,10,0,0,1-4,7.94A14.92,14.92,0,0,1,161.76,279.53Z" transform="translate(-39.01 -58.19)"/><path d="M126.28,279.53a16.32,16.32,0,0,1-8.13-2.06,19.85,19.85,0,0,1-6.39-6.36l2.83-1.46c3.19,4.73,7,7.13,11.19,7.13a12.75,12.75,0,0,0,5.38-1.16,9.19,9.19,0,0,0,3.9-3.13,7.39,7.39,0,0,0,1.33-4.18,7.74,7.74,0,0,0-1.95-4.91c-1.7-2.09-4.69-4.51-9.16-7.41-4.27-2.79-6.94-4.8-7.94-6a9.59,9.59,0,0,1-2.59-6.41,8.72,8.72,0,0,1,1.5-5,10.25,10.25,0,0,1,4.24-3.5,14,14,0,0,1,6-1.3,14.66,14.66,0,0,1,6.45,1.47,20.69,20.69,0,0,1,5.95,4.94l-2.77,1.81a18.37,18.37,0,0,0-4.72-4,10.82,10.82,0,0,0-5-1.19,8.87,8.87,0,0,0-5.83,1.88,5.87,5.87,0,0,0-2.3,4.66,6.86,6.86,0,0,0,.8,3.19,11.29,11.29,0,0,0,2.79,3.24c.72.61,2.9,2.07,6.85,4.58,4.41,2.81,7.47,5.33,9.08,7.48a10.55,10.55,0,0,1,2.37,6.32,10,10,0,0,1-4,7.94A14.9,14.9,0,0,1,126.28,279.53Z" transform="translate(-39.01 -58.19)"/><path d="M86,279.53c-7.59,0-13.65-2.56-18-7.6a23,23,0,0,1-5.53-15.51,21.67,21.67,0,0,1,6.7-16.07A23.24,23.24,0,0,1,86,233.83a24.72,24.72,0,0,1,11,2.41,21.39,21.39,0,0,1,7.85,6.49l-3,2.27a19.28,19.28,0,0,0-6.84-5.52,20.61,20.61,0,0,0-9-2,19.91,19.91,0,0,0-10,2.59A18.6,18.6,0,0,0,69,247a19.2,19.2,0,0,0-2.53,9.79,18.49,18.49,0,0,0,5.65,13.72A19.58,19.58,0,0,0,86.31,276a20,20,0,0,0,15.56-7.14l2.95,2.24a22,22,0,0,1-7.89,6.14A25.72,25.72,0,0,1,86,279.53Z" transform="translate(-39.01 -58.19)"/><path class="cls-1" d="M739.83,489.86H720.05l-25.64-22.21-25.64,22.21H649a13.62,13.62,0,0,0-13.59,13.59V594.3A13.63,13.63,0,0,0,649,607.89h19.78l25.64,22.21,25.64-22.21h19.78a13.63,13.63,0,0,0,13.59-13.59V503.45A13.62,13.62,0,0,0,739.83,489.86Z" transform="translate(-39.01 -58.19)"/><path d="M694.41,631.8a1.7,1.7,0,0,1-1.12-.42l-25.15-21.79H649A15.31,15.31,0,0,1,633.7,594.3V503.45A15.31,15.31,0,0,1,649,488.16h19.14l25.16-21.79a1.69,1.69,0,0,1,2.23,0l25.17,21.79h19.14a15.31,15.31,0,0,1,15.29,15.29V594.3a15.31,15.31,0,0,1-15.29,15.29H720.69l-25.17,21.79A1.69,1.69,0,0,1,694.41,631.8ZM649,491.56a11.9,11.9,0,0,0-11.89,11.89V594.3A11.9,11.9,0,0,0,649,606.19h19.78a1.71,1.71,0,0,1,1.12.42l24.52,21.24,24.53-21.24a1.7,1.7,0,0,1,1.11-.42h19.78a11.9,11.9,0,0,0,11.89-11.89V503.45a11.9,11.9,0,0,0-11.89-11.89H720.05a1.68,1.68,0,0,1-1.11-.42L694.41,469.9l-24.53,21.24a1.7,1.7,0,0,1-1.11.42Z" transform="translate(-39.01 -58.19)"/><path class="cls-1" d="M725.44,533.48a36.5,36.5,0,0,0-2.48-4.22l5.12-11.41a45.6,45.6,0,0,0-18.12-12L701.42,515a34.77,34.77,0,0,0-9.73-.62l-7.31-10.14a45.74,45.74,0,0,0-19.49,9.67l3.66,12a34.61,34.61,0,0,0-5.39,8.13l-12.44,1.26a45.48,45.48,0,0,0-1.38,21.71l12.19,2.82a36.39,36.39,0,0,0,1.85,4.52,33.78,33.78,0,0,0,2.49,4.21l-5.14,11.42a45.8,45.8,0,0,0,18.14,12l8.52-9.15a34.45,34.45,0,0,0,9.73.62l7.31,10.15a45.74,45.74,0,0,0,19.49-9.67l-3.66-12a34.34,34.34,0,0,0,5.4-8.13l12.44-1.27a45.73,45.73,0,0,0,1.38-21.71L727.3,538A37.93,37.93,0,0,0,725.44,533.48Zm-21.13,35.37A22.3,22.3,0,1,1,714.38,539,22.29,22.29,0,0,1,704.31,568.85Z" transform="translate(-39.01 -58.19)"/><path d="M704.43,595.25a1.69,1.69,0,0,1-1.37-.71l-6.77-9.38a36.68,36.68,0,0,1-8.3-.53l-7.88,8.46a1.72,1.72,0,0,1-1.82.44,47.68,47.68,0,0,1-18.81-12.48,1.7,1.7,0,0,1-.3-1.85l4.75-10.55a37.42,37.42,0,0,1-2.07-3.62,37.83,37.83,0,0,1-1.63-3.84L649,558.59a1.72,1.72,0,0,1-1.29-1.36,47.48,47.48,0,0,1,1.44-22.52,1.71,1.71,0,0,1,1.45-1.18l11.5-1.17a36.75,36.75,0,0,1,4.6-6.93l-3.38-11.06a1.7,1.7,0,0,1,.52-1.8,47.31,47.31,0,0,1,9.5-6.23,48.07,48.07,0,0,1,10.71-3.8,1.69,1.69,0,0,1,1.75.66l6.77,9.38a36.66,36.66,0,0,1,8.31.53l7.89-8.45a1.7,1.7,0,0,1,1.82-.44,47.5,47.5,0,0,1,18.79,12.48,1.7,1.7,0,0,1,.3,1.85l-4.74,10.55a36.25,36.25,0,0,1,2.07,3.62,39.31,39.31,0,0,1,1.63,3.83l11.27,2.6a1.69,1.69,0,0,1,1.29,1.36A47.6,47.6,0,0,1,739.72,563a1.7,1.7,0,0,1-1.45,1.19l-11.5,1.17a36.48,36.48,0,0,1-4.61,6.93l3.39,11.06a1.68,1.68,0,0,1-.53,1.79,47.12,47.12,0,0,1-20.21,10A2.45,2.45,0,0,1,704.43,595.25Zm-7.31-13.55a1.68,1.68,0,0,1,1.38.71l6.65,9.22a44.52,44.52,0,0,0,8.86-3.26,44,44,0,0,0,8-5.08l-3.32-10.88a1.71,1.71,0,0,1,.35-1.62,32.84,32.84,0,0,0,5.14-7.73,1.7,1.7,0,0,1,1.36-1L736.8,561A44.27,44.27,0,0,0,738,542.21l-11.07-2.56a1.67,1.67,0,0,1-1.23-1.11,36.29,36.29,0,0,0-1.78-4.32,34.47,34.47,0,0,0-2.36-4,1.68,1.68,0,0,1-.14-1.65l4.66-10.38a44.21,44.21,0,0,0-15.64-10.38l-7.76,8.31a1.69,1.69,0,0,1-1.59.5,33.35,33.35,0,0,0-9.26-.59,1.68,1.68,0,0,1-1.5-.7l-6.65-9.22a45.1,45.1,0,0,0-8.87,3.27,44.14,44.14,0,0,0-7.95,5.08l3.33,10.88a1.71,1.71,0,0,1-.36,1.63,33,33,0,0,0-5.13,7.72,1.72,1.72,0,0,1-1.36,1L652,536.8a43.91,43.91,0,0,0-1.19,18.73l11.08,2.56a1.72,1.72,0,0,1,1.23,1.12,32,32,0,0,0,1.77,4.3,31.39,31.39,0,0,0,2.36,4,1.73,1.73,0,0,1,.15,1.66l-4.67,10.38a44.2,44.2,0,0,0,15.65,10.38l7.75-8.32a1.71,1.71,0,0,1,1.59-.5,33,33,0,0,0,9.25.59Zm-2.7-8.83a24,24,0,1,1,10.65-2.5A23.86,23.86,0,0,1,694.42,572.87Zm0-44.6a20.6,20.6,0,1,0,18.47,11.45A20.53,20.53,0,0,0,694.39,528.27Z" transform="translate(-39.01 -58.19)"/><path class="cls-1" d="M684.5,528.9A22.3,22.3,0,1,0,714.38,539,22.3,22.3,0,0,0,684.5,528.9Z" transform="translate(-39.01 -58.19)"/><path d="M694.42,572.87h0a24,24,0,1,1,10.65-2.5A23.86,23.86,0,0,1,694.42,572.87Zm0-44.6a20.6,20.6,0,1,0,18.47,11.45A20.53,20.53,0,0,0,694.39,528.27Z" transform="translate(-39.01 -58.19)"/><path d="M73.1,499.29a1.69,1.69,0,0,1-1.21-.5L53.7,480.61a1.69,1.69,0,0,1,0-2.4L71.89,460a1.7,1.7,0,0,1,2.41,2.41l-17,17,17,17a1.7,1.7,0,0,1,0,2.4A1.68,1.68,0,0,1,73.1,499.29Z" transform="translate(-39.01 -58.19)"/><path d="M126.35,499.29a1.65,1.65,0,0,1-1.2-.5,1.68,1.68,0,0,1,0-2.4l17-17-17-17a1.7,1.7,0,0,1,2.4-2.41l18.18,18.19a1.68,1.68,0,0,1,0,2.4l-18.18,18.18A1.66,1.66,0,0,1,126.35,499.29Z" transform="translate(-39.01 -58.19)"/><path d="M110.23,499.29a1.68,1.68,0,0,1-1.44-.8l-21-33.77a1.7,1.7,0,0,1,2.89-1.8l21,33.78a1.7,1.7,0,0,1-.54,2.34A1.72,1.72,0,0,1,110.23,499.29Z" transform="translate(-39.01 -58.19)"/><path class="cls-1" d="M389.59,59.89H242.66a13.62,13.62,0,0,0-13.59,13.59v97.18a13.63,13.63,0,0,0,13.59,13.59H289.9l26.23,29.57,26.23-29.57h47.23a13.63,13.63,0,0,0,13.59-13.59V73.48A13.62,13.62,0,0,0,389.59,59.89Z" transform="translate(-39.01 -58.19)"/><path d="M316.13,215.52a1.74,1.74,0,0,1-1.28-.57l-25.72-29H242.66a15.31,15.31,0,0,1-15.29-15.29V73.48a15.31,15.31,0,0,1,15.29-15.29H389.59a15.31,15.31,0,0,1,15.29,15.29v97.18A15.31,15.31,0,0,1,389.59,186H343.12L317.4,215A1.71,1.71,0,0,1,316.13,215.52ZM242.66,61.59a11.9,11.9,0,0,0-11.89,11.89v97.18a11.9,11.9,0,0,0,11.89,11.89H289.9a1.73,1.73,0,0,1,1.27.57l25,28.14,25-28.14a1.7,1.7,0,0,1,1.27-.57h47.23a11.91,11.91,0,0,0,11.89-11.89V73.48a11.9,11.9,0,0,0-11.89-11.89Z" transform="translate(-39.01 -58.19)"/><path d="M249.91,148.24V93.87h10.22c6.34,0,10.64.27,12.79.81a13.63,13.63,0,0,1,7.37,4.55,14.82,14.82,0,0,1,.06,17.31,13.83,13.83,0,0,1-7.69,4.58c-2.46.59-7.21.89-14.11.89h-5v26.23Zm3.6-29.73,10.55.13c4,0,6.93-.37,8.86-1.12a9.75,9.75,0,0,0,4.7-3.8,10.46,10.46,0,0,0,1.7-5.82,10.32,10.32,0,0,0-1.7-5.74,9.45,9.45,0,0,0-4.52-3.74c-1.81-.72-4.62-1.07-8.6-1.07h-11Z" transform="translate(-39.01 -58.19)"/><polygon points="291.71 90.05 291.71 62.82 260.94 62.82 260.94 90.05 257.34 90.05 257.34 35.68 260.94 35.68 260.94 59.34 291.71 59.34 291.71 35.68 295.31 35.68 295.31 90.05 291.71 90.05"/><path d="M350,148.24V93.87h10.22c6.34,0,10.65.27,12.79.81a13.6,13.6,0,0,1,7.37,4.55,14.8,14.8,0,0,1,.07,17.31,13.82,13.82,0,0,1-7.7,4.58c-2.45.59-7.2.89-14.1.89h-5v26.23Zm3.61-29.73,10.55.13c4,0,6.93-.37,8.86-1.12a9.79,9.79,0,0,0,4.7-3.8,10.46,10.46,0,0,0,1.7-5.82,10.32,10.32,0,0,0-1.7-5.74,9.45,9.45,0,0,0-4.52-3.74c-1.81-.72-4.63-1.07-8.61-1.07h-11Z" transform="translate(-39.01 -58.19)"/><path class="cls-1" d="M739.83,298.87H600.68l34.72,30.06v74.38A13.62,13.62,0,0,0,649,416.9h90.84a13.62,13.62,0,0,0,13.59-13.59V312.46A13.63,13.63,0,0,0,739.83,298.87Z" transform="translate(-39.01 -58.19)"/><path d="M739.83,418.6H649a15.31,15.31,0,0,1-15.29-15.29v-73.6l-34.13-29.56a1.68,1.68,0,0,1-.48-1.87,1.69,1.69,0,0,1,1.59-1.11H739.83a15.31,15.31,0,0,1,15.29,15.29v90.85A15.31,15.31,0,0,1,739.83,418.6Zm-134.59-118,31.27,27.07a1.74,1.74,0,0,1,.59,1.29v74.38A11.9,11.9,0,0,0,649,415.2h90.84a11.9,11.9,0,0,0,11.89-11.89V312.46a11.9,11.9,0,0,0-11.89-11.89Z" transform="translate(-39.01 -58.19)"/><path d="M670.69,386.41a17.18,17.18,0,0,1-6.36-1.25,26.52,26.52,0,0,1-6.36-3.92l1.91-2.86a41,41,0,0,0,6.66,3.88,10.3,10.3,0,0,0,4.17.93,8.28,8.28,0,0,0,5-1.66,8.58,8.58,0,0,0,3.13-4.38c.57-1.72.84-4.88.84-9.68V330.58h3.6v37.09c0,5.71-.43,9.69-1.29,11.84a10.29,10.29,0,0,1-4.14,5A13.07,13.07,0,0,1,670.69,386.41Z" transform="translate(-39.01 -58.19)"/><path d="M709.26,386.41a15.73,15.73,0,0,1-8.77-2.58,23.2,23.2,0,0,1-6.9-8l3-1.83c3.45,5.93,7.51,8.93,12.08,8.93a12.31,12.31,0,0,0,5.81-1.44,10.53,10.53,0,0,0,4.21-3.93,10.34,10.34,0,0,0,1.44-5.24,10.55,10.55,0,0,0-2.11-6.15c-1.83-2.61-5.07-5.65-9.89-9.29-4.61-3.49-7.5-6-8.57-7.49a13.13,13.13,0,0,1-2.8-8,12.19,12.19,0,0,1,1.62-6.21,11.73,11.73,0,0,1,4.58-4.39,13.48,13.48,0,0,1,6.48-1.62,14,14,0,0,1,7,1.84,23.36,23.36,0,0,1,6.43,6.19l-3,2.27a20.89,20.89,0,0,0-5.1-5,10.49,10.49,0,0,0-5.41-1.49,8.72,8.72,0,0,0-6.29,2.36,7.79,7.79,0,0,0-2.49,5.84,9.68,9.68,0,0,0,.86,4,14.17,14.17,0,0,0,3,4.06c.79.77,3.14,2.59,7.41,5.74,4.76,3.52,8.06,6.67,9.8,9.37a14.52,14.52,0,0,1,2.56,7.92,13.28,13.28,0,0,1-4.35,9.94A14.78,14.78,0,0,1,709.26,386.41Z" transform="translate(-39.01 -58.19)"/><path d="M663.3,455.23H649.47a1.7,1.7,0,0,1,0-3.4H661.6v-8.26a1.7,1.7,0,0,1,3.4,0v10A1.7,1.7,0,0,1,663.3,455.23Zm-34.22,0H605.29a1.7,1.7,0,1,1,0-3.4h23.79a1.7,1.7,0,0,1,0,3.4Zm34.22-30.35a1.7,1.7,0,0,1-1.7-1.7V416.9a1.7,1.7,0,0,1,3.4,0v6.28A1.7,1.7,0,0,1,663.3,424.88Z" transform="translate(-39.01 -58.19)"/><rect class="cls-5" x="414.03" y="427.2" width="85.08" height="31.2"/><rect class="cls-5" x="216.14" y="427.2" width="85.08" height="31.2"/><rect class="cls-1" x="42.74" y="61.32" width="48.74" height="48.74"/><path d="M130.49,169.94H81.75a1.7,1.7,0,0,1-1.7-1.7V119.51a1.7,1.7,0,0,1,1.7-1.7h48.74a1.7,1.7,0,0,1,1.7,1.7v48.73A1.7,1.7,0,0,1,130.49,169.94Zm-47-3.4h45.34V121.21H83.45Z" transform="translate(-39.01 -58.19)"/><rect class="cls-1" x="111.84" y="61.32" width="48.73" height="48.74"/><path d="M199.58,169.94H150.85a1.7,1.7,0,0,1-1.7-1.7V119.51a1.7,1.7,0,0,1,1.7-1.7h48.73a1.7,1.7,0,0,1,1.7,1.7v48.73A1.7,1.7,0,0,1,199.58,169.94Zm-47-3.4h45.33V121.21H152.55Z" transform="translate(-39.01 -58.19)"/><path d="M169,160.73a1.7,1.7,0,0,1-1.2-2.9l14-14-14-14a1.7,1.7,0,1,1,2.4-2.4l15.16,15.15a1.7,1.7,0,0,1,0,2.41l-15.16,15.15A1.71,1.71,0,0,1,169,160.73Z" transform="translate(-39.01 -58.19)"/><path d="M112.42,160.73a1.69,1.69,0,0,1-1.2-.5L96.06,145.08a1.7,1.7,0,0,1,0-2.41l15.16-15.15a1.68,1.68,0,0,1,2.4,0,1.7,1.7,0,0,1,0,2.4l-14,14,14,14a1.7,1.7,0,0,1-1.2,2.9Z" transform="translate(-39.01 -58.19)"/></svg>